<?xml version="1.0" encoding="UTF-8" standalone="no"?>
<!DOCTYPE svg PUBLIC "-//W3C//DTD SVG 1.0//EN"
"http://www.w3.org/TR/2001/REC-SVG-20010904/DTD/svg10.dtd">
<!-- Created with Sodipodi ("http://www.sodipodi.com/") -->
<svg
   id="svg602"
   sodipodi:version="0.34"
   xmlns="http://www.w3.org/2000/svg"
   xmlns:sodipodi="http://sodipodi.sourceforge.net/DTD/sodipodi-0.dtd"
   xmlns:xlink="http://www.w3.org/1999/xlink"
   width="210mm"
   height="297mm"
   xml:space="preserve"
   sodipodi:docbase="/home/rams/MyImages"
   sodipodi:docname="/home/rams/MyImages/img_random"><defs
   id="defs604"><linearGradient
   id="linearGradient707"><stop
   style="stop-color:#000;stop-opacity:1;"
   offset="0"
   id="stop708" /><stop
   style="stop-color:#fff;stop-opacity:1;"
   offset="1"
   id="stop709" /></linearGradient><linearGradient
   xlink:href="#linearGradient707"
   id="linearGradient710"
   x1="1.19727135"
   y1="0.90196228"
   x2="-0.46258533"
   y2="-9.80391875e-2" /><linearGradient
   xlink:href="#linearGradient707"
   id="linearGradient711"
   x1="-0.12299568"
   y1="0.78906709"
   x2="0.63636333"
   y2="0.33593768" /><radialGradient
   xlink:href="#linearGradient707"
   id="radialGradient712"
   cx="0.5"
   cy="0.49999994"
   r="0.5"
   fx="0.5"
   fy="0.49999994" /><linearGradient
   xlink:href="#linearGradient707"
   id="linearGradient728"
   x1="-7.17703179e-2"
   y1="0.3281233"
   x2="0.95693737"
   y2="0.34374952" /><radialGradient
   xlink:href="#linearGradient707"
   id="radialGradient729"
   cx="0.56961775"
   cy="0.46875063"
   r="0.34743762"
   fx="0.56961775"
   fy="0.46875063"
   spreadMethod="reflect" /><radialGradient
   xlink:href="#linearGradient707"
   id="radialGradient730"
   cx="0.51773077"
   cy="0.53252935"
   r="0.33705997"
   fx="0.51773077"
   fy="0.53252935"
   spreadMethod="reflect" /><linearGradient
   xlink:href="#linearGradient707"
   id="linearGradient732"
   x1="0.96618348"
   y1="0.42188036"
   x2="5.31399921e-2"
   y2="0.38281304" /><linearGradient
   xlink:href="#linearGradient707"
   id="linearGradient747"
   x1="-0.34013611"
   y1="0.52287573"
   x2="1.13605464"
   y2="0.1699346" /><radialGradient
   xlink:href="#linearGradient707"
   id="radialGradient748"
   cx="-0.61304045"
   cy="0.6756891"
   r="1.77981603"
   fx="-0.61304045"
   fy="0.6756891" /><linearGradient
   xlink:href="#linearGradient707"
   id="linearGradient749"
   x1="0.90399992"
   y1="0.56249994"
   x2="0.152"
   y2="0.46093744" /><linearGradient
   xlink:href="#linearGradient707"
   id="linearGradient750"
   x1="-0.53661567"
   y1="3.12556401e-2"
   x2="0.6829263"
   y2="0.27343753" /><linearGradient
   xlink:href="#linearGradient707"
   id="linearGradient751"
   x1="1.5203253"
   y1="0.17968749"
   x2="0.26829273"
   y2="0.34374997" /><linearGradient
   xlink:href="#linearGradient707"
   id="linearGradient755"
   x1="0.3397685"
   y1="0.36601058"
   x2="0.2471042"
   y2="0.23529314" /><radialGradient
   xlink:href="#linearGradient707"
   id="radialGradient760"
   cx="1.43585515"
   cy="0.35472432"
   r="1.61224961"
   fx="1.43585515"
   fy="0.35472432" /><radialGradient
   xlink:href="#linearGradient707"
   id="radialGradient780"
   cx="0.50000012"
   cy="0.50000006"
   r="0.5"
   fx="0.50000012"
   fy="0.50000006" /><linearGradient
   xlink:href="#linearGradient707"
   id="linearGradient867"
   x1="-3.95232344"
   y1="0.11112037"
   x2="7.04762268"
   y2="0.23529433" /><linearGradient
   xlink:href="#linearGradient707"
   id="linearGradient868"
   x1="-4.47619009"
   y1="0.55530661"
   x2="3.28571463"
   y2="0.50326693"
   gradientTransform="translate(0,-1.198845e-6)" /><linearGradient
   xlink:href="#linearGradient707"
   id="linearGradient869"
   x1="-7.1770303e-2"
   y1="0.32812291"
   x2="0.95693737"
   y2="0.34374914"
   spreadMethod="reflect" /><linearGradient
   xlink:href="#linearGradient707"
   id="linearGradient870"
   x1="-0.82795751"
   y1="0.50980425"
   x2="1.54838693"
   y2="0.49673212" /><linearGradient
   xlink:href="#linearGradient707"
   id="linearGradient877"
   x1="-0.53932351"
   y1="0.90766984"
   x2="0.7060228"
   y2="0.76503539"
   spreadMethod="reflect" /><linearGradient
   xlink:href="#linearGradient707"
   id="linearGradient878"
   x1="-0.39999145"
   y1="0.41176695"
   x2="0.49090949"
   y2="0.41830084"
   spreadMethod="reflect" /><linearGradient
   xlink:href="#linearGradient707"
   id="linearGradient879"
   x1="1.58181822"
   y1="0.45751306"
   x2="0.72727275"
   y2="0.43790838"
   spreadMethod="reflect" /><radialGradient
   xlink:href="#linearGradient707"
   id="radialGradient886"
   cx="0.46473667"
   cy="0.57298237"
   r="0.28411761"
   fx="0.46473667"
   fy="0.57298237"
   gradientTransform="scale(0.999998,1.000002)"
   spreadMethod="reflect" /><radialGradient
   xlink:href="#linearGradient707"
   id="radialGradient894"
   cx="0.5208658"
   cy="0.64788383"
   r="0.45536733"
   fx="0.5208658"
   fy="0.64788383"
   gradientTransform="translate(-1.729683e-8,-1.052466e-6)"
   spreadMethod="reflect" /><radialGradient
   xlink:href="#linearGradient707"
   id="radialGradient895"
   cx="-2.23742216e-3"
   cy="-8.24688226e-2"
   r="0.57416898"
   fx="-2.23742216e-3"
   fy="-8.24688226e-2"
   gradientTransform="scale(1.068395,0.935984)"
   spreadMethod="reflect" /><radialGradient
   xlink:href="#linearGradient707"
   id="radialGradient896"
   cx="0.43724972"
   cy="1.47779249e-2"
   r="0.71920604"
   fx="0.43724972"
   fy="1.47779249e-2"
   gradientTransform="scale(1.612899,0.620002)"
   spreadMethod="reflect" /><radialGradient
   xlink:href="#linearGradient707"
   id="radialGradient897"
   cx="-0.59527457"
   cy="1.46396065"
   r="1.4117322"
   fx="-0.59527457"
   fy="1.46396065"
   gradientTransform="translate(-1.729683e-8,-1.052466e-6)"
   spreadMethod="reflect" /><radialGradient
   xlink:href="#linearGradient707"
   id="radialGradient898"
   cx="-1.40956974"
   cy="0.9465158"
   r="1.78004169"
   fx="-1.40956974"
   fy="0.9465158"
   gradientTransform="scale(1.068395,0.935984)"
   spreadMethod="reflect" /><radialGradient
   xlink:href="#linearGradient707"
   id="radialGradient899"
   cx="-1.32557964"
   cy="1.30368757"
   r="2.2296865"
   fx="-1.32557964"
   fy="1.30368757"
   gradientTransform="scale(1.612899,0.620002)"
   spreadMethod="reflect" /><linearGradient
   xlink:href="#linearGradient707"
   id="linearGradient900"
   x1="-1.33902335"
   y1="0.24509126"
   x2="0.23122512"
   y2="6.5244481e-2"
   gradientTransform="scale(1.068395,0.935983)"
   spreadMethod="reflect" /><linearGradient
   xlink:href="#linearGradient707"
   id="linearGradient901"
   x1="-1.23721087"
   y1="0.42507869"
   x2="0.72968751"
   y2="0.19980204"
   gradientTransform="scale(1.612898,0.620002)"
   spreadMethod="reflect" /></defs><sodipodi:namedview
   id="base" /><path
   style="fill:url(#radialGradient780);fill-rule:nonzero;stroke:url(#linearGradient878);fill-opacity:1;stroke-opacity:1;stroke-width:1pt;stroke-linejoin:miter;stroke-linecap:butt;"
   id="path880"
   d="M 309.6242 876.4277 C 308.4579 874.7052 306.1126 870.5039 304.7727 867.9202 C 302.0433 861.201 300.3558 858.1129 299.537 850.8922 C 299.6261 844.5101 303.3278 839.1911 311.0821 853.6833 C 305.4006 824.9046 299.0021 843.1529 311.2284 811.8588 C 314.4319 804.1235 317.2314 793.3618 319.1228 785.1938 C 320.7195 776.2758 329.734 809.3443 329.466 800.2828 C 327.7947 792.5118 326.0778 761.8518 312.3691 742.3417 C 306.864 738.8426 301.3808 735.6524 296.1317 731.716 C 294.4101 730.2653 289.1008 717.7296 287.4551 716.1909 L 277.2078 728.3593 C 291.9907 736.8247 291.2145 732.6134 287.878 734.1644 C 293.0338 738.1296 303.453 770.0369 301.7023 769.2153 C 305.0375 770.8734 297.3329 730.6501 313.6626 762.3806 C 314.0264 770.8949 312.9713 778.8632 311.4622 787.2423 C 305.9044 814.9581 288.0582 815.9082 284.9757 823.2231 C 321.9929 801.4746 274.7987 859.1525 272.13 865.4479 C 269.8476 872.2937 291.9838 840.8989 291.9812 848.1297 C 292.9683 855.9722 294.8259 862.9013 297.6908 870.253 C 299.0155 873.0606 300.9546 876.5536 301.912 879.1268 L 309.6242 876.4277 z "
   sodipodi:nodetypes="ccccccccccccccccccccc" /><path
   style="fill:url(#radialGradient712);fill-rule:nonzero;stroke:url(#linearGradient879);fill-opacity:1;stroke-opacity:1;stroke-width:1pt;stroke-linejoin:miter;stroke-linecap:butt;"
   id="path881"
   d="M 245.2681 877.6857 C 246.4344 875.9632 248.7797 871.7619 250.1196 869.1782 C 252.849 862.459 254.5365 859.3709 255.3553 852.1502 C 255.2662 845.7681 251.5645 840.4491 243.8102 854.9413 C 249.4917 826.1626 255.8902 844.4109 243.6639 813.1168 C 240.4604 805.3815 237.6609 794.6198 235.7695 786.4518 C 234.1728 777.5338 225.1583 810.6023 225.4263 801.5408 C 227.0976 793.7698 228.8145 763.1098 242.5232 743.5997 C 248.0283 740.1006 253.5115 736.9104 258.7606 732.974 C 260.4822 731.5233 265.7915 718.9876 267.4372 717.4489 L 277.6845 729.6173 C 262.9016 738.0827 263.6778 733.8714 267.0143 735.4224 C 261.8585 739.3876 251.4393 771.2949 253.19 770.4733 C 249.8548 772.1314 257.5594 731.9081 241.2297 763.6386 C 240.8659 772.1529 241.921 780.1212 243.4301 788.5003 C 248.9879 816.2161 266.8341 817.1662 269.9166 824.4811 C 232.8994 802.7326 280.0936 860.4105 282.7623 866.7059 C 285.0447 873.5517 262.9085 842.1569 262.9111 849.3877 C 261.924 857.2302 260.0664 864.1593 257.2015 871.511 C 255.8768 874.3186 253.9377 877.8116 252.9803 880.3848 L 245.2681 877.6857 z "
   sodipodi:nodetypes="ccccccccccccccccccccc" /><path
   style="fill:url(#radialGradient780);fill-rule:nonzero;stroke:url(#linearGradient878);fill-opacity:1;stroke-opacity:1;stroke-width:1pt;stroke-linejoin:miter;stroke-linecap:butt;"
   id="path873"
   d="M 309.6243 401.8851 C 308.458 403.6076 306.1127 407.8089 304.7728 410.3926 C 302.0434 417.1118 300.3559 420.1999 299.5371 427.4206 C 299.6262 433.8027 303.3279 439.1217 311.0822 424.6295 C 305.4007 453.4082 299.0022 435.1599 311.2285 466.454 C 314.432 474.1893 317.2315 484.951 319.1229 493.119 C 320.7196 502.037 329.7341 468.9685 329.4661 478.03 C 327.7948 485.801 326.0779 516.461 312.3692 535.9711 C 306.8641 539.4702 301.3809 542.6604 296.1318 546.5968 C 294.4102 548.0475 289.1009 560.5832 287.4552 562.1219 L 277.2079 549.9535 C 291.9908 541.4881 291.2146 545.6994 287.8781 544.1484 C 293.0339 540.1832 303.4531 508.2759 301.7024 509.0975 C 305.0376 507.4394 297.333 547.6627 313.6627 515.9322 C 314.0265 507.4179 312.9714 499.4496 311.4623 491.0705 C 305.9045 463.3547 288.0583 462.4046 284.9758 455.0897 C 321.993 476.8382 274.7988 419.1603 272.1301 412.8649 C 269.8477 406.0191 291.9839 437.4139 291.9813 430.1831 C 292.9684 422.3406 294.826 415.4115 297.6909 408.0598 C 299.0156 405.2522 300.9547 401.7592 301.9121 399.186 L 309.6243 401.8851 z "
   sodipodi:nodetypes="ccccccccccccccccccccc" /><path
   style="fill:url(#radialGradient712);fill-rule:nonzero;stroke:url(#linearGradient879);fill-opacity:1;stroke-opacity:1;stroke-width:1pt;stroke-linejoin:miter;stroke-linecap:butt;"
   id="path874"
   d="M 245.2682 400.6271 C 246.4345 402.3496 248.7798 406.5509 250.1197 409.1346 C 252.8491 415.8538 254.5366 418.9419 255.3554 426.1626 C 255.2663 432.5447 251.5646 437.8637 243.8103 423.3715 C 249.4918 452.1502 255.8903 433.9019 243.664 465.196 C 240.4605 472.9313 237.661 483.693 235.7696 491.861 C 234.1729 500.779 225.1584 467.7105 225.4264 476.772 C 227.0977 484.543 228.8146 515.203 242.5233 534.7131 C 248.0284 538.2122 253.5116 541.4024 258.7607 545.3388 C 260.4823 546.7895 265.7916 559.3252 267.4373 560.8639 L 277.6846 548.6955 C 262.9017 540.2301 263.6779 544.4414 267.0144 542.8904 C 261.8586 538.9252 251.4394 507.0179 253.1901 507.8395 C 249.8549 506.1814 257.5595 546.4047 241.2298 514.6742 C 240.866 506.1599 241.9211 498.1916 243.4302 489.8125 C 248.988 462.0967 266.8342 461.1466 269.9167 453.8317 C 232.8995 475.5802 280.0937 417.9023 282.7624 411.6069 C 285.0448 404.7611 262.9086 436.1559 262.9112 428.9251 C 261.9241 421.0826 260.0665 414.1535 257.2016 406.8018 C 255.8769 403.9942 253.9378 400.5012 252.9804 397.928 L 245.2682 400.6271 z "
   sodipodi:nodetypes="ccccccccccccccccccccc" /><path
   style="font-size:12;fill:url(#linearGradient750);fill-rule:evenodd;stroke:url(#linearGradient710);stroke-width:1.007942;"
   d="M 460.6184 551.7925 L 559.463 579.1373 L 566.4106 685.2181 L 468.6795 724.3689 L 404.7656 641.119 L 460.6184 551.7925 z "
   id="path778"
   sodipodi:nodetypes="cccccc" /><polygon
   sodipodi:type="star"
   style="font-size:12;fill:url(#radialGradient748);fill-rule:evenodd;stroke:url(#radialGradient760);stroke-width:0.6261;stroke-dasharray:none;"
   id="polygon787"
   sodipodi:sides="6"
   sodipodi:cx="92.9531784"
   sodipodi:cy="858.156433"
   sodipodi:r1="55.5315437"
   sodipodi:r2="60.6328773"
   sodipodi:arg1="0.16514875"
   sodipodi:arg2="-2.47402287"
   points="147.7292,867.2858 45.33645,820.6199 112.4349,910.1585 101.6524,798.1509 57.65895,901.0292 149.2691,835.6874 38.1772,849.0271 140.5699,895.693 73.47143,806.1544 84.25393,918.162 128.2474,815.2837 36.6372,880.6254 147.7292,867.2858 "
   transform="matrix(-0.751319,-9.097421e-2,5.598253e-2,-0.810103,512.8743,1338.624)" /><path
   style="fill:url(#linearGradient751);fill-rule:evenodd;stroke:url(#linearGradient747);stroke-opacity:1;stroke-width:1pt;stroke-linejoin:miter;stroke-linecap:butt;fill-opacity:1;"
   d="M 91.54963 547.6655 L 151.409 638.0414 L 83.9205 723.7225 L -17.6057 686.1636 L -12.32399 577.0083 L 91.54963 547.6655 z "
   id="path779" /><polygon
   sodipodi:type="star"
   style="font-size:12;fill:url(#radialGradient748);fill-rule:evenodd;stroke:url(#radialGradient760);stroke-width:0.6261;stroke-dasharray:none;"
   id="polygon781"
   sodipodi:sides="6"
   sodipodi:cx="92.9531784"
   sodipodi:cy="858.156433"
   sodipodi:r1="55.5315437"
   sodipodi:r2="60.6328773"
   sodipodi:arg1="0.16514875"
   sodipodi:arg2="-2.47402287"
   points="147.7292,867.2858 45.33645,820.6199 112.4349,910.1585 101.6524,798.1509 57.65895,901.0292 149.2691,835.6874 38.1772,849.0271 140.5699,895.693 73.47143,806.1544 84.25393,918.162 128.2474,815.2837 36.6372,880.6254 147.7292,867.2858 "
   transform="matrix(0.757147,8.739033e-2,-5.641678e-2,0.778189,37.73414,-42.1297)" /><polygon
   sodipodi:type="star"
   style="font-size:12;fill:url(#radialGradient748);fill-rule:evenodd;stroke:url(#radialGradient760);stroke-width:0.6261;stroke-dasharray:none;"
   id="polygon771"
   sodipodi:sides="6"
   sodipodi:cx="92.9531784"
   sodipodi:cy="858.156433"
   sodipodi:r1="55.5315437"
   sodipodi:r2="60.6328773"
   sodipodi:arg1="0.16514875"
   sodipodi:arg2="-2.47402287"
   points="147.7292,867.2858 45.33645,820.6199 112.4349,910.1585 101.6524,798.1509 57.65895,901.0292 149.2691,835.6874 38.1772,849.0271 140.5699,895.693 73.47143,806.1544 84.25393,918.162 128.2474,815.2837 36.6372,880.6254 147.7292,867.2858 "
   transform="matrix(0.504148,6.394443e-2,-3.756528e-2,0.569409,163.8617,233.5986)" /><polygon
   sodipodi:type="star"
   style="font-size:12;fill:url(#radialGradient748);fill-rule:evenodd;stroke:url(#radialGradient760);stroke-width:0.6261;stroke-dasharray:none;"
   id="polygon770"
   sodipodi:sides="6"
   sodipodi:cx="92.9531784"
   sodipodi:cy="858.156433"
   sodipodi:r1="55.5315437"
   sodipodi:r2="60.6328773"
   sodipodi:arg1="0.16514875"
   sodipodi:arg2="-2.47402287"
   points="147.7292,867.2858 45.33645,820.6199 112.4349,910.1585 101.6524,798.1509 57.65895,901.0292 149.2691,835.6874 38.1772,849.0271 140.5699,895.693 73.47143,806.1544 84.25393,918.162 128.2474,815.2837 36.6372,880.6254 147.7292,867.2858 "
   transform="matrix(0.504148,6.394443e-2,-3.756528e-2,0.569409,368.6746,238.2934)" /><polygon
   sodipodi:type="star"
   style="font-size:12;fill:url(#radialGradient748);fill-rule:evenodd;stroke:url(#radialGradient760);stroke-width:0.6261;stroke-dasharray:none;"
   id="polygon769"
   sodipodi:sides="6"
   sodipodi:cx="92.9531784"
   sodipodi:cy="858.156433"
   sodipodi:r1="55.5315437"
   sodipodi:r2="60.6328773"
   sodipodi:arg1="0.16514875"
   sodipodi:arg2="-2.47402287"
   points="147.7292,867.2858 45.33645,820.6199 112.4349,910.1585 101.6524,798.1509 57.65895,901.0292 149.2691,835.6874 38.1772,849.0271 140.5699,895.693 73.47143,806.1544 84.25393,918.162 128.2474,815.2837 36.6372,880.6254 147.7292,867.2858 "
   transform="matrix(0.504148,6.394443e-2,-3.756528e-2,0.569409,361.6323,53.43365)" /><polygon
   sodipodi:type="star"
   style="font-size:12;fill:url(#radialGradient748);fill-rule:evenodd;stroke:url(#radialGradient760);stroke-width:0.6261;stroke-dasharray:none;"
   id="polygon768"
   sodipodi:sides="6"
   sodipodi:cx="92.9531784"
   sodipodi:cy="858.156433"
   sodipodi:r1="55.5315437"
   sodipodi:r2="60.6328773"
   sodipodi:arg1="0.16514875"
   sodipodi:arg2="-2.47402287"
   points="147.7292,867.2858 45.33645,820.6199 112.4349,910.1585 101.6524,798.1509 57.65895,901.0292 149.2691,835.6874 38.1772,849.0271 140.5699,895.693 73.47143,806.1544 84.25393,918.162 128.2474,815.2837 36.6372,880.6254 147.7292,867.2858 "
   transform="matrix(0.504148,6.394443e-2,-3.756528e-2,0.569409,161.5143,49.91254)" /><polygon
   sodipodi:type="star"
   style="font-size:12;fill:url(#radialGradient748);fill-rule:evenodd;stroke:url(#radialGradient760);stroke-width:0.6261;stroke-dasharray:none;"
   id="polygon765"
   sodipodi:sides="6"
   sodipodi:cx="92.9531784"
   sodipodi:cy="858.156433"
   sodipodi:r1="55.5315437"
   sodipodi:r2="60.6328773"
   sodipodi:arg1="0.16514875"
   sodipodi:arg2="-2.47402287"
   points="147.7292,867.2858 45.33645,820.6199 112.4349,910.1585 101.6524,798.1509 57.65895,901.0292 149.2691,835.6874 38.1772,849.0271 140.5699,895.693 73.47143,806.1544 84.25393,918.162 128.2474,815.2837 36.6372,880.6254 147.7292,867.2858 "
   transform="matrix(0.553224,0.245,-0.195961,0.746195,344.2301,-71.09149)" /><polygon
   sodipodi:type="star"
   style="font-size:12;fill:url(#radialGradient748);fill-rule:evenodd;stroke:url(#radialGradient760);stroke-width:0.6261;stroke-dasharray:none;"
   id="polygon764"
   sodipodi:sides="6"
   sodipodi:cx="92.9531784"
   sodipodi:cy="858.156433"
   sodipodi:r1="55.5315437"
   sodipodi:r2="60.6328773"
   sodipodi:arg1="0.16514875"
   sodipodi:arg2="-2.47402287"
   points="147.7292,867.2858 45.33645,820.6199 112.4349,910.1585 101.6524,798.1509 57.65895,901.0292 149.2691,835.6874 38.1772,849.0271 140.5699,895.693 73.47143,806.1544 84.25393,918.162 128.2474,815.2837 36.6372,880.6254 147.7292,867.2858 "
   transform="matrix(0.553224,0.245,-0.195961,0.746195,344.2301,23.97931)" /><polygon
   sodipodi:type="star"
   style="font-size:12;fill:url(#radialGradient748);fill-rule:evenodd;stroke:url(#radialGradient760);stroke-width:0.6261;stroke-dasharray:none;"
   id="polygon763"
   sodipodi:sides="6"
   sodipodi:cx="92.9531784"
   sodipodi:cy="858.156433"
   sodipodi:r1="55.5315437"
   sodipodi:r2="60.6328773"
   sodipodi:arg1="0.16514875"
   sodipodi:arg2="-2.47402287"
   points="147.7292,867.2858 45.33645,820.6199 112.4349,910.1585 101.6524,798.1509 57.65895,901.0292 149.2691,835.6874 38.1772,849.0271 140.5699,895.693 73.47143,806.1544 84.25393,918.162 128.2474,815.2837 36.6372,880.6254 147.7292,867.2858 "
   transform="matrix(0.553224,0.245,-0.195961,0.746195,445.1694,25.15302)" /><polygon
   sodipodi:type="star"
   style="font-size:12;fill:url(#radialGradient748);fill-rule:evenodd;stroke:url(#radialGradient760);stroke-width:0.6261;stroke-dasharray:none;"
   id="polygon761"
   sodipodi:sides="6"
   sodipodi:cx="92.9531784"
   sodipodi:cy="858.156433"
   sodipodi:r1="55.5315437"
   sodipodi:r2="60.6328773"
   sodipodi:arg1="0.16514875"
   sodipodi:arg2="-2.47402287"
   points="147.7292,867.2858 45.33645,820.6199 112.4349,910.1585 101.6524,798.1509 57.65895,901.0292 149.2691,835.6874 38.1772,849.0271 140.5699,895.693 73.47143,806.1544 84.25393,918.162 128.2474,815.2837 36.6372,880.6254 147.7292,867.2858 "
   transform="matrix(0.553224,0.245,-0.195961,0.746195,445.2537,-60.69659)" /><path
   style="font-size:12;fill:url(#radialGradient729);fill-rule:evenodd;stroke:url(#linearGradient870);stroke-width:1;stroke-dasharray:none;"
   d="M 203.375 638.0625 C 323.875 554.8125 80.1875 508.5 80.1875 508.5 L 202.75 610.625 L 94 549.25 L 175 636.875 M 203.375 638.0625 C 322.5 721.125 79.5625 767.3125 79.5625 767.3125 L 202.125 665.1875 L 85.125 722.4375 L 175 636.875 "
   id="path754" /><polygon
   sodipodi:type="star"
   style="font-size:12;fill:url(#linearGradient749);fill-rule:evenodd;stroke:#000000;stroke-width:0.125;stroke-dasharray:none;stroke-opacity:1;"
   id="polygon639"
   sodipodi:sides="5"
   sodipodi:cx="44.8167114"
   sodipodi:cy="634.072876"
   sodipodi:r1="93.7390671"
   sodipodi:r2="24.4947205"
   sodipodi:arg1="-1.21824324"
   sodipodi:arg2="0.68111515"
   points="77.18434,546.0993 63.84595,649.4962 138.4867,637.671 36.0286,656.9368 70.34032,724.2702 20.35612,632.7802 -33.07882,686.2198 38.48735,610.41 -28.84898,576.1041 65.36554,620.7411 77.18434,546.0993 "
   transform="translate(15.08129,0.586823)" /><polygon
   sodipodi:type="star"
   style="font-size:12;fill:url(#radialGradient748);fill-rule:evenodd;stroke:url(#radialGradient760);stroke-width:0.6261;stroke-dasharray:none;"
   id="polygon642"
   sodipodi:sides="6"
   sodipodi:cx="92.9531784"
   sodipodi:cy="858.156433"
   sodipodi:r1="55.5315437"
   sodipodi:r2="60.6328773"
   sodipodi:arg1="0.16514875"
   sodipodi:arg2="-2.47402287"
   points="147.7292,867.2858 45.33645,820.6199 112.4349,910.1585 101.6524,798.1509 57.65895,901.0292 149.2691,835.6874 38.1772,849.0271 140.5699,895.693 73.47143,806.1544 84.25393,918.162 128.2474,815.2837 36.6372,880.6254 147.7292,867.2858 "
   transform="matrix(0.553224,0.245,-0.195961,0.746195,393.5261,-25.31665)" /><path
   style="font-size:12;fill:none;fill-rule:evenodd;stroke:url(#linearGradient867);"
   d="M 280.9375 606.5 C 280 595.25 278.5625 584.6875 276.625 575 "
   id="path713" /><path
   style="font-size:12;fill:none;fill-rule:evenodd;stroke:#000000;"
   d="M 272.625 604.875 C 273.5 594.25 274.875 584.25 276.625 575 "
   id="path714" /><path
   style="font-size:12;fill:url(#linearGradient869);fill-rule:evenodd;stroke:#000000;"
   d="M 279.6145 547.5677 C 259.802 552.1926 194.625 480 162.25 487.8125 C -81.3125 546.5 294.3125 445.25 272.625 604.875 "
   id="path718"
   sodipodi:nodetypes="ccc" /><path
   style="font-size:12;fill:url(#linearGradient732);fill-rule:evenodd;stroke:#000000;"
   d="M 274.6357 547.5378 C 294.3857 552.2253 358.4375 481.625 391.25 489.5 C 634.875 548.125 259.25 446.875 280.9375 606.5 "
   id="path720"
   sodipodi:nodetypes="ccc" /><polygon
   sodipodi:type="star"
   style="font-size:12;fill:url(#radialGradient730);fill-rule:evenodd;stroke:url(#radialGradient760);stroke-width:0.6261;stroke-dasharray:none;"
   id="polygon762"
   sodipodi:sides="6"
   sodipodi:cx="92.9531784"
   sodipodi:cy="858.156433"
   sodipodi:r1="55.5315437"
   sodipodi:r2="60.6328773"
   sodipodi:arg1="0.16514875"
   sodipodi:arg2="-2.47402287"
   points="147.7292,867.2858 45.33645,820.6199 112.4349,910.1585 101.6524,798.1509 57.65895,901.0292 149.2691,835.6874 38.1772,849.0271 140.5699,895.693 73.47143,806.1544 84.25393,918.162 128.2474,815.2837 36.6372,880.6254 147.7292,867.2858 "
   transform="matrix(0.553224,0.245,-0.195961,0.746195,393.5261,-25.31665)" /><polygon
   sodipodi:type="star"
   style="font-size:12;fill:url(#radialGradient748);fill-rule:evenodd;stroke:url(#radialGradient760);stroke-width:0.6261;stroke-dasharray:none;"
   id="polygon782"
   sodipodi:sides="6"
   sodipodi:cx="92.9531784"
   sodipodi:cy="858.156433"
   sodipodi:r1="55.5315437"
   sodipodi:r2="60.6328773"
   sodipodi:arg1="0.16514875"
   sodipodi:arg2="-2.47402287"
   points="147.7292,867.2858 45.33645,820.6199 112.4349,910.1585 101.6524,798.1509 57.65895,901.0292 149.2691,835.6874 38.1772,849.0271 140.5699,895.693 73.47143,806.1544 84.25393,918.162 128.2474,815.2837 36.6372,880.6254 147.7292,867.2858 "
   transform="matrix(0.170365,2.265423e-2,-1.269433e-2,0.20173,-0.849384,504.2262)" /><polygon
   sodipodi:type="star"
   style="font-size:12;fill:url(#radialGradient748);fill-rule:evenodd;stroke:url(#radialGradient760);stroke-width:0.6261;stroke-dasharray:none;"
   id="polygon783"
   sodipodi:sides="6"
   sodipodi:cx="92.9531784"
   sodipodi:cy="858.156433"
   sodipodi:r1="55.5315437"
   sodipodi:r2="60.6328773"
   sodipodi:arg1="0.16514875"
   sodipodi:arg2="-2.47402287"
   points="147.7292,867.2858 45.33645,820.6199 112.4349,910.1585 101.6524,798.1509 57.65895,901.0292 149.2691,835.6874 38.1772,849.0271 140.5699,895.693 73.47143,806.1544 84.25393,918.162 128.2474,815.2837 36.6372,880.6254 147.7292,867.2858 "
   transform="matrix(0.170365,2.265423e-2,-1.269433e-2,0.20173,81.31474,523.3149)" /><polygon
   sodipodi:type="star"
   style="font-size:12;fill:url(#radialGradient748);fill-rule:evenodd;stroke:url(#radialGradient760);stroke-width:0.6261;stroke-dasharray:none;"
   id="polygon784"
   sodipodi:sides="6"
   sodipodi:cx="92.9531784"
   sodipodi:cy="858.156433"
   sodipodi:r1="55.5315437"
   sodipodi:r2="60.6328773"
   sodipodi:arg1="0.16514875"
   sodipodi:arg2="-2.47402287"
   points="147.7292,867.2858 45.33645,820.6199 112.4349,910.1585 101.6524,798.1509 57.65895,901.0292 149.2691,835.6874 38.1772,849.0271 140.5699,895.693 73.47143,806.1544 84.25393,918.162 128.2474,815.2837 36.6372,880.6254 147.7292,867.2858 "
   transform="matrix(0.170365,2.265423e-2,-1.269433e-2,0.20173,128.6214,452.7699)" /><polygon
   sodipodi:type="star"
   style="font-size:12;fill:url(#radialGradient748);fill-rule:evenodd;stroke:url(#radialGradient760);stroke-width:0.6261;stroke-dasharray:none;"
   id="polygon785"
   sodipodi:sides="6"
   sodipodi:cx="92.9531784"
   sodipodi:cy="858.156433"
   sodipodi:r1="55.5315437"
   sodipodi:r2="60.6328773"
   sodipodi:arg1="0.16514875"
   sodipodi:arg2="-2.47402287"
   points="147.7292,867.2858 45.33645,820.6199 112.4349,910.1585 101.6524,798.1509 57.65895,901.0292 149.2691,835.6874 38.1772,849.0271 140.5699,895.693 73.47143,806.1544 84.25393,918.162 128.2474,815.2837 36.6372,880.6254 147.7292,867.2858 "
   transform="matrix(0.170365,2.265423e-2,-1.269433e-2,0.20173,73.84528,388.0345)" /><polygon
   sodipodi:type="star"
   style="font-size:12;fill:url(#radialGradient748);fill-rule:evenodd;stroke:url(#radialGradient760);stroke-width:0.6261;stroke-dasharray:none;"
   id="polygon786"
   sodipodi:sides="6"
   sodipodi:cx="92.9531784"
   sodipodi:cy="858.156433"
   sodipodi:r1="55.5315437"
   sodipodi:r2="60.6328773"
   sodipodi:arg1="0.16514875"
   sodipodi:arg2="-2.47402287"
   points="147.7292,867.2858 45.33645,820.6199 112.4349,910.1585 101.6524,798.1509 57.65895,901.0292 149.2691,835.6874 38.1772,849.0271 140.5699,895.693 73.47143,806.1544 84.25393,918.162 128.2474,815.2837 36.6372,880.6254 147.7292,867.2858 "
   transform="matrix(0.170365,2.265423e-2,-1.269433e-2,0.20173,-6.658968,422.0621)" /><polygon
   sodipodi:type="star"
   style="font-size:12;fill:url(#linearGradient749);fill-rule:evenodd;stroke:#000000;stroke-width:0.125;stroke-dasharray:none;stroke-opacity:1;"
   id="polygon759"
   sodipodi:sides="5"
   sodipodi:cx="44.8167114"
   sodipodi:cy="634.072876"
   sodipodi:r1="93.7390671"
   sodipodi:r2="24.4947205"
   sodipodi:arg1="-1.21824324"
   sodipodi:arg2="0.68111515"
   points="77.18434,546.0993 63.84595,649.4962 138.4867,637.671 36.0286,656.9368 70.34032,724.2702 20.35612,632.7802 -33.07882,686.2198 38.48735,610.41 -28.84898,576.1041 65.36554,620.7411 77.18434,546.0993 "
   transform="matrix(-0.941148,8.145711e-3,7.836242e-3,0.986039,530.4261,10.0594)" /><polygon
   sodipodi:type="star"
   style="font-size:12;fill:url(#radialGradient748);fill-rule:evenodd;stroke:url(#radialGradient760);stroke-width:0.6261;stroke-dasharray:none;"
   id="polygon788"
   sodipodi:sides="6"
   sodipodi:cx="92.9531784"
   sodipodi:cy="858.156433"
   sodipodi:r1="55.5315437"
   sodipodi:r2="60.6328773"
   sodipodi:arg1="0.16514875"
   sodipodi:arg2="-2.47402287"
   points="147.7292,867.2858 45.33645,820.6199 112.4349,910.1585 101.6524,798.1509 57.65895,901.0292 149.2691,835.6874 38.1772,849.0271 140.5699,895.693 73.47143,806.1544 84.25393,918.162 128.2474,815.2837 36.6372,880.6254 147.7292,867.2858 "
   transform="matrix(-0.169054,-2.358328e-2,1.259662e-2,-0.210003,552.8085,783.8108)" /><polygon
   sodipodi:type="star"
   style="font-size:12;fill:url(#radialGradient748);fill-rule:evenodd;stroke:url(#radialGradient760);stroke-width:0.6261;stroke-dasharray:none;"
   id="polygon789"
   sodipodi:sides="6"
   sodipodi:cx="92.9531784"
   sodipodi:cy="858.156433"
   sodipodi:r1="55.5315437"
   sodipodi:r2="60.6328773"
   sodipodi:arg1="0.16514875"
   sodipodi:arg2="-2.47402287"
   points="147.7292,867.2858 45.33645,820.6199 112.4349,910.1585 101.6524,798.1509 57.65895,901.0292 149.2691,835.6874 38.1772,849.0271 140.5699,895.693 73.47143,806.1544 84.25393,918.162 128.2474,815.2837 36.6372,880.6254 147.7292,867.2858 "
   transform="matrix(-0.169054,-2.358328e-2,1.259662e-2,-0.210003,479.5122,750.9799)" /><polygon
   sodipodi:type="star"
   style="font-size:12;fill:url(#radialGradient748);fill-rule:evenodd;stroke:url(#radialGradient760);stroke-width:0.6261;stroke-dasharray:none;"
   id="polygon790"
   sodipodi:sides="6"
   sodipodi:cx="92.9531784"
   sodipodi:cy="858.156433"
   sodipodi:r1="55.5315437"
   sodipodi:r2="60.6328773"
   sodipodi:arg1="0.16514875"
   sodipodi:arg2="-2.47402287"
   points="147.7292,867.2858 45.33645,820.6199 112.4349,910.1585 101.6524,798.1509 57.65895,901.0292 149.2691,835.6874 38.1772,849.0271 140.5699,895.693 73.47143,806.1544 84.25393,918.162 128.2474,815.2837 36.6372,880.6254 147.7292,867.2858 "
   transform="matrix(-0.169054,-2.358328e-2,1.259662e-2,-0.210003,430.9226,813.1859)" /><polygon
   sodipodi:type="star"
   style="font-size:12;fill:url(#radialGradient748);fill-rule:evenodd;stroke:url(#radialGradient760);stroke-width:0.6261;stroke-dasharray:none;"
   id="polygon791"
   sodipodi:sides="6"
   sodipodi:cx="92.9531784"
   sodipodi:cy="858.156433"
   sodipodi:r1="55.5315437"
   sodipodi:r2="60.6328773"
   sodipodi:arg1="0.16514875"
   sodipodi:arg2="-2.47402287"
   points="147.7292,867.2858 45.33645,820.6199 112.4349,910.1585 101.6524,798.1509 57.65895,901.0292 149.2691,835.6874 38.1772,849.0271 140.5699,895.693 73.47143,806.1544 84.25393,918.162 128.2474,815.2837 36.6372,880.6254 147.7292,867.2858 "
   transform="matrix(-0.169054,-2.358328e-2,1.259662e-2,-0.210003,473.7475,885.7602)" /><polygon
   sodipodi:type="star"
   style="font-size:12;fill:url(#radialGradient748);fill-rule:evenodd;stroke:url(#radialGradient760);stroke-width:0.6261;stroke-dasharray:none;"
   id="polygon792"
   sodipodi:sides="6"
   sodipodi:cx="92.9531784"
   sodipodi:cy="858.156433"
   sodipodi:r1="55.5315437"
   sodipodi:r2="60.6328773"
   sodipodi:arg1="0.16514875"
   sodipodi:arg2="-2.47402287"
   points="147.7292,867.2858 45.33645,820.6199 112.4349,910.1585 101.6524,798.1509 57.65895,901.0292 149.2691,835.6874 38.1772,849.0271 140.5699,895.693 73.47143,806.1544 84.25393,918.162 128.2474,815.2837 36.6372,880.6254 147.7292,867.2858 "
   transform="matrix(-0.169054,-2.358328e-2,1.259662e-2,-0.210003,544.5725,858.9768)" /><polygon
   sodipodi:type="star"
   style="font-size:12;fill:url(#radialGradient748);fill-rule:evenodd;stroke:url(#radialGradient760);stroke-width:0.6261;stroke-dasharray:none;"
   id="polygon793"
   sodipodi:sides="6"
   sodipodi:cx="92.9531784"
   sodipodi:cy="858.156433"
   sodipodi:r1="55.5315437"
   sodipodi:r2="60.6328773"
   sodipodi:arg1="0.16514875"
   sodipodi:arg2="-2.47402287"
   points="147.7292,867.2858 45.33645,820.6199 112.4349,910.1585 101.6524,798.1509 57.65895,901.0292 149.2691,835.6874 38.1772,849.0271 140.5699,895.693 73.47143,806.1544 84.25393,918.162 128.2474,815.2837 36.6372,880.6254 147.7292,867.2858 "
   transform="matrix(-0.299171,-3.212787e-2,2.229197e-2,-0.28609,198.6786,885.617)" /><polygon
   sodipodi:type="star"
   style="font-size:12;fill:url(#radialGradient748);fill-rule:evenodd;stroke:url(#radialGradient760);stroke-width:0.6261;stroke-dasharray:none;"
   id="polygon794"
   sodipodi:sides="6"
   sodipodi:cx="92.9531784"
   sodipodi:cy="858.156433"
   sodipodi:r1="55.5315437"
   sodipodi:r2="60.6328773"
   sodipodi:arg1="0.16514875"
   sodipodi:arg2="-2.47402287"
   points="147.7292,867.2858 45.33645,820.6199 112.4349,910.1585 101.6524,798.1509 57.65895,901.0292 149.2691,835.6874 38.1772,849.0271 140.5699,895.693 73.47143,806.1544 84.25393,918.162 128.2474,815.2837 36.6372,880.6254 147.7292,867.2858 "
   transform="matrix(0.299171,3.212787e-2,-2.229197e-2,0.28609,354.7785,390.2841)" /><path
   style="font-size:12;fill:url(#linearGradient728);fill-rule:evenodd;stroke:url(#linearGradient755);"
   d="M 279.6192 730.3905 C 259.8404 725.6236 194.1477 797.3468 161.8296 789.3023 C -81.30621 728.8693 293.5829 832.8111 273.0409 673.0345 "
   id="path806"
   sodipodi:nodetypes="ccc" /><path
   style="font-size:12;fill:url(#linearGradient711);fill-rule:evenodd;stroke:#000000;"
   d="M 272.625 671.5 C 273.5625 682.75 275 693.3125 276.9375 703 "
   id="path811" /><path
   style="font-size:12;fill:url(#linearGradient711);fill-rule:evenodd;stroke:url(#linearGradient868);"
   d="M 280.9375 672.3125 C 280.0625 682.9375 278.6875 692.9375 276.9375 702.1875 "
   id="path813" /><polygon
   sodipodi:type="star"
   style="font-size:12;fill:url(#radialGradient748);fill-rule:evenodd;stroke:url(#radialGradient760);stroke-width:0.6261;stroke-dasharray:none;"
   id="polygon815"
   sodipodi:sides="6"
   sodipodi:cx="92.9531784"
   sodipodi:cy="858.156433"
   sodipodi:r1="55.5315437"
   sodipodi:r2="60.6328773"
   sodipodi:arg1="0.16514875"
   sodipodi:arg2="-2.47402287"
   points="147.7292,867.2858 45.33645,820.6199 112.4349,910.1585 101.6524,798.1509 57.65895,901.0292 149.2691,835.6874 38.1772,849.0271 140.5699,895.693 73.47143,806.1544 84.25393,918.162 128.2474,815.2837 36.6372,880.6254 147.7292,867.2858 "
   transform="matrix(-0.170365,-2.265423e-2,1.269433e-2,-0.20173,282.5143,893.8835)" /><polygon
   sodipodi:type="star"
   style="font-size:12;fill:url(#radialGradient748);fill-rule:evenodd;stroke:url(#radialGradient760);stroke-width:0.6261;stroke-dasharray:none;"
   id="polygon816"
   sodipodi:sides="6"
   sodipodi:cx="92.9531784"
   sodipodi:cy="858.156433"
   sodipodi:r1="55.5315437"
   sodipodi:r2="60.6328773"
   sodipodi:arg1="0.16514875"
   sodipodi:arg2="-2.47402287"
   points="147.7292,867.2858 45.33645,820.6199 112.4349,910.1585 101.6524,798.1509 57.65895,901.0292 149.2691,835.6874 38.1772,849.0271 140.5699,895.693 73.47143,806.1544 84.25393,918.162 128.2474,815.2837 36.6372,880.6254 147.7292,867.2858 "
   transform="matrix(0.170365,-2.265423e-2,-1.269433e-2,-0.20173,272.185,735.1057)" /><polygon
   sodipodi:type="star"
   style="font-size:12;fill:url(#radialGradient748);fill-rule:evenodd;stroke:url(#radialGradient760);stroke-width:0.6261;stroke-dasharray:none;"
   id="polygon817"
   sodipodi:sides="6"
   sodipodi:cx="92.9531784"
   sodipodi:cy="858.156433"
   sodipodi:r1="55.5315437"
   sodipodi:r2="60.6328773"
   sodipodi:arg1="0.16514875"
   sodipodi:arg2="-2.47402287"
   points="147.7292,867.2858 45.33645,820.6199 112.4349,910.1585 101.6524,798.1509 57.65895,901.0292 149.2691,835.6874 38.1772,849.0271 140.5699,895.693 73.47143,806.1544 84.25393,918.162 128.2474,815.2837 36.6372,880.6254 147.7292,867.2858 "
   transform="matrix(-0.170365,-2.265423e-2,1.269433e-2,-0.20173,391.924,675.9532)" /><polygon
   sodipodi:type="star"
   style="font-size:12;fill:url(#radialGradient748);fill-rule:evenodd;stroke:url(#radialGradient760);stroke-width:0.6261;stroke-dasharray:none;"
   id="polygon818"
   sodipodi:sides="6"
   sodipodi:cx="92.9531784"
   sodipodi:cy="858.156433"
   sodipodi:r1="55.5315437"
   sodipodi:r2="60.6328773"
   sodipodi:arg1="0.16514875"
   sodipodi:arg2="-2.47402287"
   points="147.7292,867.2858 45.33645,820.6199 112.4349,910.1585 101.6524,798.1509 57.65895,901.0292 149.2691,835.6874 38.1772,849.0271 140.5699,895.693 73.47143,806.1544 84.25393,918.162 128.2474,815.2837 36.6372,880.6254 147.7292,867.2858 "
   transform="matrix(-0.170365,-2.265423e-2,1.269433e-2,-0.20173,391.0345,952.591)" /><polygon
   sodipodi:type="star"
   style="font-size:12;fill:url(#radialGradient748);fill-rule:evenodd;stroke:url(#radialGradient760);stroke-width:0.6261;stroke-dasharray:none;"
   id="polygon819"
   sodipodi:sides="6"
   sodipodi:cx="92.9531784"
   sodipodi:cy="858.156433"
   sodipodi:r1="55.5315437"
   sodipodi:r2="60.6328773"
   sodipodi:arg1="0.16514875"
   sodipodi:arg2="-2.47402287"
   points="147.7292,867.2858 45.33645,820.6199 112.4349,910.1585 101.6524,798.1509 57.65895,901.0292 149.2691,835.6874 38.1772,849.0271 140.5699,895.693 73.47143,806.1544 84.25393,918.162 128.2474,815.2837 36.6372,880.6254 147.7292,867.2858 "
   transform="matrix(-0.170365,-2.265423e-2,1.269433e-2,-0.20173,176.6625,952.591)" /><polygon
   sodipodi:type="star"
   style="font-size:12;fill:url(#radialGradient748);fill-rule:evenodd;stroke:url(#radialGradient760);stroke-width:0.6261;stroke-dasharray:none;"
   id="polygon820"
   sodipodi:sides="6"
   sodipodi:cx="92.9531784"
   sodipodi:cy="858.156433"
   sodipodi:r1="55.5315437"
   sodipodi:r2="60.6328773"
   sodipodi:arg1="0.16514875"
   sodipodi:arg2="-2.47402287"
   points="147.7292,867.2858 45.33645,820.6199 112.4349,910.1585 101.6524,798.1509 57.65895,901.0292 149.2691,835.6874 38.1772,849.0271 140.5699,895.693 73.47143,806.1544 84.25393,918.162 128.2474,815.2837 36.6372,880.6254 147.7292,867.2858 "
   transform="matrix(-0.170365,-2.265423e-2,1.269433e-2,-0.20173,176.6625,674.1743)" /><path
   style="fill:black;fill-rule:nonzero;stroke:none;fill-opacity:1;stroke-opacity:1;stroke-width:1pt;stroke-linejoin:miter;stroke-linecap:butt;"
   id="path871"
   d="M -176.8614 134.8072 C -179.686 138.9236 -185.366 148.9635 -188.6111 155.1378 C -195.2215 171.1947 -199.3084 178.5742 -201.2914 195.8296 C -201.0755 211.081 -192.1105 223.7917 -173.3307 189.1596 C -187.0905 257.9322 -202.5867 214.3243 -172.9763 289.1077 C -165.2178 307.5929 -158.4378 333.3101 -153.8571 352.8293 C -149.99 374.1406 -128.1582 295.1168 -128.8073 316.7711 C -132.855 335.3414 -137.0131 408.6096 -170.2136 455.2329 C -183.5464 463.5948 -196.8259 471.2185 -209.5384 480.6253 C -213.7081 484.0921 -226.5665 514.0486 -230.552 517.7256 L -255.3698 488.6468 C -219.5675 468.417 -221.4473 478.4808 -229.5279 474.7744 C -217.0411 465.2987 -191.8072 389.0497 -196.0473 391.013 C -187.9699 387.0506 -206.6293 483.1725 -167.081 407.346 C -166.1999 386.9994 -168.7551 367.9574 -172.41 347.9338 C -185.8703 281.7014 -229.0914 279.431 -236.5568 261.9506 C -146.9061 313.923 -261.2042 176.09 -267.6674 161.0458 C -273.1952 144.6864 -219.5842 219.7107 -219.5905 202.4312 C -217.1999 183.6898 -212.701 167.1313 -205.7625 149.563 C -202.5543 142.8537 -197.8581 134.5064 -195.5393 128.3573 L -176.8614 134.8072 z "
   sodipodi:nodetypes="ccccccccccccccccccccc" /><polygon
   sodipodi:type="star"
   style="font-size:12;fill:url(#radialGradient886);fill-rule:evenodd;stroke:url(#radialGradient760);stroke-width:0.6261;stroke-dasharray:none;"
   id="polygon885"
   sodipodi:sides="6"
   sodipodi:cx="92.9531784"
   sodipodi:cy="858.156433"
   sodipodi:r1="55.5315437"
   sodipodi:r2="60.6328773"
   sodipodi:arg1="0.16514875"
   sodipodi:arg2="-2.47402287"
   points="147.7292,867.2858 45.33645,820.6199 112.4349,910.1585 101.6524,798.1509 57.65895,901.0292 149.2691,835.6874 38.1772,849.0271 140.5699,895.693 73.47143,806.1544 84.25393,918.162 128.2474,815.2837 36.6372,880.6254 147.7292,867.2858 "
   transform="matrix(0.504148,6.394443e-2,-3.756528e-2,0.569409,262.1509,288.9245)" /><polygon
   sodipodi:type="star"
   style="font-size:12;fill:url(#radialGradient886);fill-rule:evenodd;stroke:url(#radialGradient760);stroke-width:0.6261;stroke-dasharray:none;"
   id="polygon887"
   sodipodi:sides="6"
   sodipodi:cx="92.9531784"
   sodipodi:cy="858.156433"
   sodipodi:r1="55.5315437"
   sodipodi:r2="60.6328773"
   sodipodi:arg1="0.16514875"
   sodipodi:arg2="-2.47402287"
   points="147.7292,867.2858 45.33645,820.6199 112.4349,910.1585 101.6524,798.1509 57.65895,901.0292 149.2691,835.6874 38.1772,849.0271 140.5699,895.693 73.47143,806.1544 84.25393,918.162 128.2474,815.2837 36.6372,880.6254 147.7292,867.2858 "
   transform="matrix(-0.504148,-6.394443e-2,3.756528e-2,-0.569409,292.6595,987.5079)" /><path
   style="font-size:12;fill:url(#radialGradient729);fill-rule:evenodd;stroke:url(#linearGradient870);stroke-width:1;stroke-dasharray:none;"
   d="M 350.7792 640.5774 C 230.2792 557.3274 473.9667 511.0149 473.9667 511.0149 L 351.4042 613.1399 L 460.1542 551.7649 L 379.1542 639.3899 M 350.7792 640.5774 C 231.6542 723.6399 474.5917 769.8274 474.5917 769.8274 L 352.0292 667.7024 L 469.0292 724.9524 L 379.1542 639.3899 "
   id="path888" /><path
   style="font-size:12;fill:url(#linearGradient732);fill-rule:evenodd;stroke:#000000;"
   d="M 274.6403 730.3846 C 294.4234 725.8389 357.9672 796.8968 390.8353 789.2574 C 634.8746 732.3813 258.533 830.9346 281.3649 671.4692 "
   id="path807"
   sodipodi:nodetypes="ccc" /><polygon
   sodipodi:type="star"
   style="font-size:12;fill:url(#radialGradient748);fill-rule:evenodd;stroke:url(#radialGradient760);stroke-width:0.6261;stroke-dasharray:none;"
   id="polygon889"
   sodipodi:sides="6"
   sodipodi:cx="92.9531784"
   sodipodi:cy="858.156433"
   sodipodi:r1="55.5315437"
   sodipodi:r2="60.6328773"
   sodipodi:arg1="0.16514875"
   sodipodi:arg2="-2.47402287"
   points="147.7292,867.2858 45.33645,820.6199 112.4349,910.1585 101.6524,798.1509 57.65895,901.0292 149.2691,835.6874 38.1772,849.0271 140.5699,895.693 73.47143,806.1544 84.25393,918.162 128.2474,815.2837 36.6372,880.6254 147.7292,867.2858 "
   transform="matrix(0.299171,-3.212787e-2,-2.229197e-2,-0.28609,356.177,888.1329)" /></svg>
