<?xml version="1.0" encoding="UTF-8" standalone="no"?>
<!DOCTYPE svg PUBLIC "-//W3C//DTD SVG 1.0//EN"
"http://www.w3.org/TR/2001/REC-SVG-20010904/DTD/svg10.dtd">
<!-- Created with Sodipodi ("http://www.sodipodi.com/") -->
<svg
   id="svg1457"
   sodipodi:version="0.34"
   xmlns="http://www.w3.org/2000/svg"
   xmlns:sodipodi="http://sodipodi.sourceforge.net/DTD/sodipodi-0.dtd"
   xmlns:xlink="http://www.w3.org/1999/xlink"
   width="210mm"
   height="297mm"
   xml:space="preserve"
   sodipodi:docbase="/people/rams/table-top/MyImages"
   sodipodi:docname="/people/rams/table-top/MyImages/img-floral-1"><defs
   id="defs1459"><linearGradient
   id="linearGradient1467"><stop
   style="stop-color:#8f928d;stop-opacity:1;"
   offset="0"
   id="stop1468" /><stop
   style="stop-color:#ffffff;stop-opacity:1;"
   offset="1"
   id="stop1469" /></linearGradient><linearGradient
   id="linearGradient1461"><stop
   style="stop-color:#000;stop-opacity:1;"
   offset="0"
   id="stop1462" /><stop
   style="stop-color:#fff;stop-opacity:1;"
   offset="1"
   id="stop1463" /></linearGradient><linearGradient
   xlink:href="#linearGradient1467"
   id="linearGradient1464" /><radialGradient
   xlink:href="#linearGradient1467"
   id="radialGradient1465"
   cx="0.49683353"
   cy="0.49682277"
   r="0.39801794"
   fx="0.49683353"
   fy="0.49682277" /><radialGradient
   xlink:href="#linearGradient1467"
   id="radialGradient1466"
   cx="0.4962202"
   cy="0.50020641"
   r="0.38431299"
   fx="0.4962202"
   fy="0.50020641"
   gradientTransform="translate(-4.528647e-7,1.770485e-6)" /><radialGradient
   xlink:href="#linearGradient1461"
   id="radialGradient1478"
   cx="0.49612394"
   cy="0.5000006"
   r="0.5"
   fx="0.49612394"
   fy="0.5000006"
   spreadMethod="reflect" /><radialGradient
   xlink:href="#linearGradient1461"
   id="radialGradient1479"
   cx="0.51163155"
   cy="0.47657254"
   r="0.32567152"
   fx="0.51163155"
   fy="0.47657254"
   spreadMethod="reflect" /><radialGradient
   xlink:href="#linearGradient1461"
   id="radialGradient1480"
   cx="0.51938123"
   cy="0.45312041"
   r="0.31706572"
   fx="0.51938123"
   fy="0.45312041"
   spreadMethod="reflect" /><radialGradient
   xlink:href="#linearGradient1467"
   id="radialGradient1481"
   cx="0.51937431"
   cy="0.4843615"
   r="0.20614995"
   fx="0.51937431"
   fy="0.4843615" /><radialGradient
   xlink:href="#linearGradient1467"
   id="radialGradient1482"
   cx="0.51161903"
   cy="0.4921751"
   r="0.19396628"
   fx="0.51161903"
   fy="0.4921751"
   spreadMethod="reflect"
   gradientTransform="scale(0.999999,1.000001)" /><radialGradient
   xlink:href="#linearGradient1467"
   id="radialGradient1483"
   cx="0.51938242"
   cy="0.4609375"
   r="7.75432587e-3"
   fx="0.51938242"
   fy="0.4609375" /><radialGradient
   xlink:href="#linearGradient1467"
   id="radialGradient1513"
   cx="0.51162845"
   cy="0.47656247"
   r="0.73206609"
   fx="0.51162845"
   fy="0.47656247"
   spreadMethod="reflect" /></defs><sodipodi:namedview
   id="base" /><g
   id="g1493"
   transform="matrix(0.967478,0.252957,-0.252957,0.967478,140.0974,101.5593)"><path
   sodipodi:type="arc"
   style="fill-rule:evenodd;stroke:#ffffff;fill:url(#radialGradient1478);fill-opacity:1;stroke-opacity:1;stroke-width:37.129;stroke-linejoin:bevel;stroke-linecap:round;stroke-dasharray:37.12949,37.12949;stroke-dashoffset:0;"
   id="path1494"
   d="M 459.5654 482.7542 A 128.594 128.594 0 1 0 202.3774 482.7542 A 128.594 128.594 0 1 0  459.5654 482.7542 z"
   sodipodi:cx="330.971375"
   sodipodi:cy="482.754181"
   sodipodi:rx="128.593994"
   sodipodi:ry="128.593964"
   transform="matrix(0.665576,0,0,0.665576,-52.48144,148.7967)" /><path
   sodipodi:type="arc"
   style="fill-rule:evenodd;stroke:url(#radialGradient1465);fill:url(#radialGradient1479);fill-opacity:1;stroke-opacity:1;stroke-width:37.133;stroke-linejoin:bevel;stroke-linecap:butt;stroke-dasharray:37.13267,37.13267;stroke-dashoffset:0;"
   id="path1495"
   d="M 459.5654 482.7542 A 128.594 128.594 0 1 0 202.3774 482.7542 A 128.594 128.594 0 1 0  459.5654 482.7542 z"
   sodipodi:cx="330.971375"
   sodipodi:cy="482.754181"
   sodipodi:rx="128.593994"
   sodipodi:ry="128.593964"
   transform="matrix(0.478689,0,0,0.478689,9.372383,239.4383)" /><path
   sodipodi:type="arc"
   style="fill-rule:evenodd;stroke:url(#radialGradient1465);fill:url(#radialGradient1480);fill-opacity:1;stroke-opacity:1;stroke-width:37.133;stroke-linejoin:bevel;stroke-linecap:butt;stroke-dasharray:37.13267,37.13267;stroke-dashoffset:0;"
   id="path1496"
   d="M 459.5654 482.7542 A 128.594 128.594 0 1 0 202.3774 482.7542 A 128.594 128.594 0 1 0  459.5654 482.7542 z"
   sodipodi:cx="330.971375"
   sodipodi:cy="482.754181"
   sodipodi:rx="128.593994"
   sodipodi:ry="128.593964"
   transform="matrix(0.321312,0,0,0.321312,61.45959,315.4126)" /><path
   sodipodi:type="arc"
   style="fill-rule:evenodd;stroke:url(#radialGradient1465);fill:url(#radialGradient1481);fill-opacity:1;stroke-opacity:1;stroke-width:37.133;stroke-linejoin:bevel;stroke-linecap:butt;stroke-dasharray:37.13267,37.13267;stroke-dashoffset:0;"
   id="path1497"
   d="M 459.5654 482.7542 A 128.594 128.594 0 1 0 202.3774 482.7542 A 128.594 128.594 0 1 0  459.5654 482.7542 z"
   sodipodi:cx="330.971375"
   sodipodi:cy="482.754181"
   sodipodi:rx="128.593994"
   sodipodi:ry="128.593964"
   transform="matrix(0.216394,0,0,0.216394,96.606,365.2189)" /><path
   sodipodi:type="arc"
   style="fill-rule:evenodd;stroke:url(#radialGradient1465);fill:none;fill-opacity:1;stroke-opacity:1;stroke-width:37.133;stroke-linejoin:bevel;stroke-linecap:butt;stroke-dasharray:37.13267,37.13267;stroke-dashoffset:0;"
   id="path1498"
   d="M 459.5654 482.7542 A 128.594 128.594 0 1 0 202.3774 482.7542 A 128.594 128.594 0 1 0  459.5654 482.7542 z"
   sodipodi:cx="330.971375"
   sodipodi:cy="482.754181"
   sodipodi:rx="128.593994"
   sodipodi:ry="128.593964"
   transform="matrix(0.144263,0,0,0.144263,120.0578,399.6188)" /><path
   sodipodi:type="arc"
   style="fill-rule:evenodd;stroke:url(#radialGradient1465);fill:url(#radialGradient1482);fill-opacity:1;stroke-opacity:1;stroke-width:37.133;stroke-linejoin:bevel;stroke-linecap:butt;stroke-dasharray:37.13267,37.13267;stroke-dashoffset:0;"
   id="path1499"
   d="M 459.5654 482.7542 A 128.594 128.594 0 1 0 202.3774 482.7542 A 128.594 128.594 0 1 0  459.5654 482.7542 z"
   sodipodi:cx="330.971375"
   sodipodi:cy="482.754181"
   sodipodi:rx="128.593994"
   sodipodi:ry="128.593964"
   transform="matrix(9.590229e-2,0,0,9.590229e-2,135.9584,422.8596)" /><path
   sodipodi:type="arc"
   style="fill-rule:evenodd;stroke:url(#radialGradient1465);fill:none;fill-opacity:1;stroke-opacity:1;stroke-width:37.133;stroke-linejoin:bevel;stroke-linecap:butt;stroke-dasharray:37.13267,37.13267;stroke-dashoffset:0;"
   id="path1500"
   d="M 459.5654 482.7542 A 128.594 128.594 0 1 0 202.3774 482.7542 A 128.594 128.594 0 1 0  459.5654 482.7542 z"
   sodipodi:cx="330.971375"
   sodipodi:cy="482.754181"
   sodipodi:rx="128.593994"
   sodipodi:ry="128.593964"
   transform="matrix(6.434494e-2,0,0,6.434502e-2,146.4557,437.9359)" /><path
   sodipodi:type="arc"
   style="fill-rule:evenodd;stroke:none;fill:url(#radialGradient1466);fill-opacity:1;stroke-opacity:1;stroke-width:1pt;stroke-linejoin:miter;stroke-linecap:butt;"
   id="path1501"
   d="M 176.195 471.008 A 6.223473 6.03714 0 1 0 163.7481 471.008 A 6.223473 6.03714 0 1 0  176.195 471.008 z"
   sodipodi:cx="169.971558"
   sodipodi:cy="471.008026"
   sodipodi:rx="6.2234726"
   sodipodi:ry="6.03713989"
   transform="matrix(0.952096,0,0,0.952095,6.055377,20.56035)" /></g><g
   id="g1484"
   transform="translate(-29.51344,-36.25941)"><path
   sodipodi:type="arc"
   style="fill-rule:evenodd;stroke:#ffffff;fill:url(#radialGradient1478);fill-opacity:1;stroke-opacity:1;stroke-width:37.129;stroke-linejoin:bevel;stroke-linecap:round;stroke-dasharray:37.12949,37.12949;stroke-dashoffset:0;"
   id="path1477"
   d="M 459.5654 482.7542 A 128.594 128.594 0 1 0 202.3774 482.7542 A 128.594 128.594 0 1 0  459.5654 482.7542 z"
   sodipodi:cx="330.971375"
   sodipodi:cy="482.754181"
   sodipodi:rx="128.593994"
   sodipodi:ry="128.593964"
   transform="matrix(0.665576,0,0,0.665576,-52.48144,148.7967)" /><path
   sodipodi:type="arc"
   style="fill-rule:evenodd;stroke:url(#radialGradient1465);fill:url(#radialGradient1479);fill-opacity:1;stroke-opacity:1;stroke-width:37.133;stroke-linejoin:bevel;stroke-linecap:butt;stroke-dasharray:37.13267,37.13267;stroke-dashoffset:0;"
   id="path1470"
   d="M 459.5654 482.7542 A 128.594 128.594 0 1 0 202.3774 482.7542 A 128.594 128.594 0 1 0  459.5654 482.7542 z"
   sodipodi:cx="330.971375"
   sodipodi:cy="482.754181"
   sodipodi:rx="128.593994"
   sodipodi:ry="128.593964"
   transform="matrix(0.478689,0,0,0.478689,9.372383,239.4383)" /><path
   sodipodi:type="arc"
   style="fill-rule:evenodd;stroke:url(#radialGradient1465);fill:url(#radialGradient1480);fill-opacity:1;stroke-opacity:1;stroke-width:37.133;stroke-linejoin:bevel;stroke-linecap:butt;stroke-dasharray:37.13267,37.13267;stroke-dashoffset:0;"
   id="path1471"
   d="M 459.5654 482.7542 A 128.594 128.594 0 1 0 202.3774 482.7542 A 128.594 128.594 0 1 0  459.5654 482.7542 z"
   sodipodi:cx="330.971375"
   sodipodi:cy="482.754181"
   sodipodi:rx="128.593994"
   sodipodi:ry="128.593964"
   transform="matrix(0.321312,0,0,0.321312,61.45959,315.4126)" /><path
   sodipodi:type="arc"
   style="fill-rule:evenodd;stroke:url(#radialGradient1465);fill:url(#radialGradient1481);fill-opacity:1;stroke-opacity:1;stroke-width:37.133;stroke-linejoin:bevel;stroke-linecap:butt;stroke-dasharray:37.13267,37.13267;stroke-dashoffset:0;"
   id="path1472"
   d="M 459.5654 482.7542 A 128.594 128.594 0 1 0 202.3774 482.7542 A 128.594 128.594 0 1 0  459.5654 482.7542 z"
   sodipodi:cx="330.971375"
   sodipodi:cy="482.754181"
   sodipodi:rx="128.593994"
   sodipodi:ry="128.593964"
   transform="matrix(0.216394,0,0,0.216394,96.606,365.2189)" /><path
   sodipodi:type="arc"
   style="fill-rule:evenodd;stroke:url(#radialGradient1465);fill:none;fill-opacity:1;stroke-opacity:1;stroke-width:37.133;stroke-linejoin:bevel;stroke-linecap:butt;stroke-dasharray:37.13267,37.13267;stroke-dashoffset:0;"
   id="path1473"
   d="M 459.5654 482.7542 A 128.594 128.594 0 1 0 202.3774 482.7542 A 128.594 128.594 0 1 0  459.5654 482.7542 z"
   sodipodi:cx="330.971375"
   sodipodi:cy="482.754181"
   sodipodi:rx="128.593994"
   sodipodi:ry="128.593964"
   transform="matrix(0.144263,0,0,0.144263,120.0578,399.6188)" /><path
   sodipodi:type="arc"
   style="fill-rule:evenodd;stroke:url(#radialGradient1465);fill:url(#radialGradient1482);fill-opacity:1;stroke-opacity:1;stroke-width:37.133;stroke-linejoin:bevel;stroke-linecap:butt;stroke-dasharray:37.13267,37.13267;stroke-dashoffset:0;"
   id="path1474"
   d="M 459.5654 482.7542 A 128.594 128.594 0 1 0 202.3774 482.7542 A 128.594 128.594 0 1 0  459.5654 482.7542 z"
   sodipodi:cx="330.971375"
   sodipodi:cy="482.754181"
   sodipodi:rx="128.593994"
   sodipodi:ry="128.593964"
   transform="matrix(9.590229e-2,0,0,9.590229e-2,135.9584,422.8596)" /><path
   sodipodi:type="arc"
   style="fill-rule:evenodd;stroke:url(#radialGradient1465);fill:none;fill-opacity:1;stroke-opacity:1;stroke-width:37.133;stroke-linejoin:bevel;stroke-linecap:butt;stroke-dasharray:37.13267,37.13267;stroke-dashoffset:0;"
   id="path1475"
   d="M 459.5654 482.7542 A 128.594 128.594 0 1 0 202.3774 482.7542 A 128.594 128.594 0 1 0  459.5654 482.7542 z"
   sodipodi:cx="330.971375"
   sodipodi:cy="482.754181"
   sodipodi:rx="128.593994"
   sodipodi:ry="128.593964"
   transform="matrix(6.434494e-2,0,0,6.434502e-2,146.4557,437.9359)" /><path
   sodipodi:type="arc"
   style="fill-rule:evenodd;stroke:none;fill:url(#radialGradient1466);fill-opacity:1;stroke-opacity:1;stroke-width:1pt;stroke-linejoin:miter;stroke-linecap:butt;"
   id="path1476"
   d="M 176.195 471.008 A 6.223473 6.03714 0 1 0 163.7481 471.008 A 6.223473 6.03714 0 1 0  176.195 471.008 z"
   sodipodi:cx="169.971558"
   sodipodi:cy="471.008026"
   sodipodi:rx="6.2234726"
   sodipodi:ry="6.03713989"
   transform="matrix(0.952096,0,0,0.952095,6.055377,20.56035)" /></g><g
   id="g1502"
   transform="matrix(0.934577,0.355764,-0.355764,0.934577,308.8845,266.9209)"><path
   sodipodi:type="arc"
   style="fill-rule:evenodd;stroke:#ffffff;fill:url(#radialGradient1478);fill-opacity:1;stroke-opacity:1;stroke-width:37.129;stroke-linejoin:bevel;stroke-linecap:round;stroke-dasharray:37.12949,37.12949;stroke-dashoffset:0;"
   id="path1503"
   d="M 459.5654 482.7542 A 128.594 128.594 0 1 0 202.3774 482.7542 A 128.594 128.594 0 1 0  459.5654 482.7542 z"
   sodipodi:cx="330.971375"
   sodipodi:cy="482.754181"
   sodipodi:rx="128.593994"
   sodipodi:ry="128.593964"
   transform="matrix(0.665576,0,0,0.665576,-52.48144,148.7967)" /><path
   sodipodi:type="arc"
   style="fill-rule:evenodd;stroke:url(#radialGradient1465);fill:url(#radialGradient1479);fill-opacity:1;stroke-opacity:1;stroke-width:37.133;stroke-linejoin:bevel;stroke-linecap:butt;stroke-dasharray:37.13267,37.13267;stroke-dashoffset:0;"
   id="path1504"
   d="M 459.5654 482.7542 A 128.594 128.594 0 1 0 202.3774 482.7542 A 128.594 128.594 0 1 0  459.5654 482.7542 z"
   sodipodi:cx="330.971375"
   sodipodi:cy="482.754181"
   sodipodi:rx="128.593994"
   sodipodi:ry="128.593964"
   transform="matrix(0.478689,0,0,0.478689,9.372383,239.4383)" /><path
   sodipodi:type="arc"
   style="fill-rule:evenodd;stroke:url(#radialGradient1465);fill:url(#radialGradient1480);fill-opacity:1;stroke-opacity:1;stroke-width:37.133;stroke-linejoin:bevel;stroke-linecap:butt;stroke-dasharray:37.13267,37.13267;stroke-dashoffset:0;"
   id="path1505"
   d="M 459.5654 482.7542 A 128.594 128.594 0 1 0 202.3774 482.7542 A 128.594 128.594 0 1 0  459.5654 482.7542 z"
   sodipodi:cx="330.971375"
   sodipodi:cy="482.754181"
   sodipodi:rx="128.593994"
   sodipodi:ry="128.593964"
   transform="matrix(0.321312,0,0,0.321312,61.45959,315.4126)" /><path
   sodipodi:type="arc"
   style="fill-rule:evenodd;stroke:url(#radialGradient1465);fill:url(#radialGradient1481);fill-opacity:1;stroke-opacity:1;stroke-width:37.133;stroke-linejoin:bevel;stroke-linecap:butt;stroke-dasharray:37.13267,37.13267;stroke-dashoffset:0;"
   id="path1506"
   d="M 459.5654 482.7542 A 128.594 128.594 0 1 0 202.3774 482.7542 A 128.594 128.594 0 1 0  459.5654 482.7542 z"
   sodipodi:cx="330.971375"
   sodipodi:cy="482.754181"
   sodipodi:rx="128.593994"
   sodipodi:ry="128.593964"
   transform="matrix(0.216394,0,0,0.216394,96.606,365.2189)" /><path
   sodipodi:type="arc"
   style="fill-rule:evenodd;stroke:url(#radialGradient1465);fill:none;fill-opacity:1;stroke-opacity:1;stroke-width:37.133;stroke-linejoin:bevel;stroke-linecap:butt;stroke-dasharray:37.13267,37.13267;stroke-dashoffset:0;"
   id="path1507"
   d="M 459.5654 482.7542 A 128.594 128.594 0 1 0 202.3774 482.7542 A 128.594 128.594 0 1 0  459.5654 482.7542 z"
   sodipodi:cx="330.971375"
   sodipodi:cy="482.754181"
   sodipodi:rx="128.593994"
   sodipodi:ry="128.593964"
   transform="matrix(0.144263,0,0,0.144263,120.0578,399.6188)" /><path
   sodipodi:type="arc"
   style="fill-rule:evenodd;stroke:url(#radialGradient1465);fill:url(#radialGradient1482);fill-opacity:1;stroke-opacity:1;stroke-width:37.133;stroke-linejoin:bevel;stroke-linecap:butt;stroke-dasharray:37.13267,37.13267;stroke-dashoffset:0;"
   id="path1508"
   d="M 459.5654 482.7542 A 128.594 128.594 0 1 0 202.3774 482.7542 A 128.594 128.594 0 1 0  459.5654 482.7542 z"
   sodipodi:cx="330.971375"
   sodipodi:cy="482.754181"
   sodipodi:rx="128.593994"
   sodipodi:ry="128.593964"
   transform="matrix(9.590229e-2,0,0,9.590229e-2,135.9584,422.8596)" /><path
   sodipodi:type="arc"
   style="fill-rule:evenodd;stroke:url(#radialGradient1465);fill:none;fill-opacity:1;stroke-opacity:1;stroke-width:37.133;stroke-linejoin:bevel;stroke-linecap:butt;stroke-dasharray:37.13267,37.13267;stroke-dashoffset:0;"
   id="path1509"
   d="M 459.5654 482.7542 A 128.594 128.594 0 1 0 202.3774 482.7542 A 128.594 128.594 0 1 0  459.5654 482.7542 z"
   sodipodi:cx="330.971375"
   sodipodi:cy="482.754181"
   sodipodi:rx="128.593994"
   sodipodi:ry="128.593964"
   transform="matrix(6.434494e-2,0,0,6.434502e-2,146.4557,437.9359)" /><path
   sodipodi:type="arc"
   style="fill-rule:evenodd;stroke:none;fill:url(#radialGradient1466);fill-opacity:1;stroke-opacity:1;stroke-width:1pt;stroke-linejoin:miter;stroke-linecap:butt;"
   id="path1510"
   d="M 176.195 471.008 A 6.223473 6.03714 0 1 0 163.7481 471.008 A 6.223473 6.03714 0 1 0  176.195 471.008 z"
   sodipodi:cx="169.971558"
   sodipodi:cy="471.008026"
   sodipodi:rx="6.2234726"
   sodipodi:ry="6.03713989"
   transform="matrix(0.952096,0,0,0.952095,6.055377,20.56035)" /></g><g
   id="g1545"
   transform="translate(80.95139,18.5513)"><g
   id="g1535"
   transform="matrix(0.958064,0.286551,-0.286551,0.958064,329.91,222.627)"><polygon
   sodipodi:type="star"
   style="font-size:12;fill:#808080;fill-rule:evenodd;stroke:url(#radialGradient1483);stroke-width:2.5;stroke-linecap:round;stroke-dasharray:10 2.5 ;stroke-dashoffset:1.75;"
   id="polygon1512"
   sodipodi:sides="8"
   sodipodi:cx="733.402161"
   sodipodi:cy="414.95816"
   sodipodi:r1="122.340401"
   sodipodi:r2="120.728241"
   sodipodi:arg1="-0.1430449"
   sodipodi:arg2="2.67274547"
   points="854.493,397.5176 625.7017,469.5102 831.3587,488.25 618.6724,377.3766 750.8427,536.049 678.8501,307.2577 660.1103,512.9147 770.9838,300.2283 612.3113,432.3987 841.1026,360.4061 635.4456,341.6663 848.132,452.5397 715.9616,293.8673 787.9542,522.6586 806.694,317.0016 695.8206,529.688 854.493,397.5176 "
   transform="translate(-146.1032,-13.36185)" /><polygon
   sodipodi:type="star"
   style="font-size:12;fill:#808080;fill-rule:evenodd;stroke:url(#radialGradient1483);stroke-width:2.5;stroke-linecap:round;stroke-dasharray:10 2.5;stroke-dashoffset:1.75;"
   id="polygon1514"
   sodipodi:sides="8"
   sodipodi:cx="733.402161"
   sodipodi:cy="414.95816"
   sodipodi:r1="122.340401"
   sodipodi:r2="120.728241"
   sodipodi:arg1="-0.1430449"
   sodipodi:arg2="2.67274547"
   points="854.493,397.5176 625.7017,469.5102 831.3587,488.25 618.6724,377.3766 750.8427,536.049 678.8501,307.2577 660.1103,512.9147 770.9838,300.2283 612.3113,432.3987 841.1026,360.4061 635.4456,341.6663 848.132,452.5397 715.9616,293.8673 787.9542,522.6586 806.694,317.0016 695.8206,529.688 854.493,397.5176 "
   transform="matrix(0.999737,-2.293591e-2,2.293591e-2,0.999737,-78.69217,238.8331)" /><polygon
   sodipodi:type="star"
   style="font-size:12;fill:#808080;fill-rule:evenodd;stroke:url(#radialGradient1483);stroke-width:2.5;stroke-linecap:round;stroke-dasharray:10 2.5;stroke-dashoffset:1.75;"
   id="polygon1515"
   sodipodi:sides="8"
   sodipodi:cx="733.402161"
   sodipodi:cy="414.95816"
   sodipodi:r1="122.340401"
   sodipodi:r2="120.728241"
   sodipodi:arg1="-0.1430449"
   sodipodi:arg2="2.67274547"
   points="854.493,397.5176 625.7017,469.5102 831.3587,488.25 618.6724,377.3766 750.8427,536.049 678.8501,307.2577 660.1103,512.9147 770.9838,300.2283 612.3113,432.3987 841.1026,360.4061 635.4456,341.6663 848.132,452.5397 715.9616,293.8673 787.9542,522.6586 806.694,317.0016 695.8206,529.688 854.493,397.5176 "
   transform="matrix(0.731058,-0.682314,0.682314,0.731058,1.585104,528.6584)" /><polygon
   sodipodi:type="star"
   style="font-size:12;fill:#808080;fill-rule:evenodd;stroke:url(#radialGradient1483);stroke-width:2.5;stroke-linecap:round;stroke-dasharray:10 2.5;stroke-dashoffset:1.75;"
   id="polygon1534"
   sodipodi:sides="8"
   sodipodi:cx="733.402161"
   sodipodi:cy="414.95816"
   sodipodi:r1="122.340401"
   sodipodi:r2="120.728241"
   sodipodi:arg1="-0.1430449"
   sodipodi:arg2="2.67274547"
   points="854.493,397.5176 625.7017,469.5102 831.3587,488.25 618.6724,377.3766 750.8427,536.049 678.8501,307.2577 660.1103,512.9147 770.9838,300.2283 612.3113,432.3987 841.1026,360.4061 635.4456,341.6663 848.132,452.5397 715.9616,293.8673 787.9542,522.6586 806.694,317.0016 695.8206,529.688 854.493,397.5176 "
   transform="matrix(0.999763,-2.172716e-2,2.172716e-2,0.999763,148.6216,159.5141)" /></g><g
   id="g1540"
   transform="matrix(-0.290894,-0.956752,-0.956752,0.290894,1581.195,981.6458)"><polygon
   sodipodi:type="star"
   style="font-size:12;fill:#808080;fill-rule:evenodd;stroke:url(#radialGradient1483);stroke-width:2.5;stroke-linecap:round;stroke-dasharray:10 2.5 ;stroke-dashoffset:1.75;"
   id="polygon1541"
   sodipodi:sides="8"
   sodipodi:cx="733.402161"
   sodipodi:cy="414.95816"
   sodipodi:r1="122.340401"
   sodipodi:r2="120.728241"
   sodipodi:arg1="-0.1430449"
   sodipodi:arg2="2.67274547"
   points="854.493,397.5176 625.7017,469.5102 831.3587,488.25 618.6724,377.3766 750.8427,536.049 678.8501,307.2577 660.1103,512.9147 770.9838,300.2283 612.3113,432.3987 841.1026,360.4061 635.4456,341.6663 848.132,452.5397 715.9616,293.8673 787.9542,522.6586 806.694,317.0016 695.8206,529.688 854.493,397.5176 "
   transform="translate(-146.1032,-13.36185)" /><polygon
   sodipodi:type="star"
   style="font-size:12;fill:#808080;fill-rule:evenodd;stroke:url(#radialGradient1483);stroke-width:2.5;stroke-linecap:round;stroke-dasharray:10 2.5;stroke-dashoffset:1.75;"
   id="polygon1542"
   sodipodi:sides="8"
   sodipodi:cx="733.402161"
   sodipodi:cy="414.95816"
   sodipodi:r1="122.340401"
   sodipodi:r2="120.728241"
   sodipodi:arg1="-0.1430449"
   sodipodi:arg2="2.67274547"
   points="854.493,397.5176 625.7017,469.5102 831.3587,488.25 618.6724,377.3766 750.8427,536.049 678.8501,307.2577 660.1103,512.9147 770.9838,300.2283 612.3113,432.3987 841.1026,360.4061 635.4456,341.6663 848.132,452.5397 715.9616,293.8673 787.9542,522.6586 806.694,317.0016 695.8206,529.688 854.493,397.5176 "
   transform="matrix(0.999737,-2.293591e-2,2.293591e-2,0.999737,-78.69217,238.8331)" /><polygon
   sodipodi:type="star"
   style="font-size:12;fill:#808080;fill-rule:evenodd;stroke:url(#radialGradient1483);stroke-width:2.5;stroke-linecap:round;stroke-dasharray:10 2.5;stroke-dashoffset:1.75;"
   id="polygon1543"
   sodipodi:sides="8"
   sodipodi:cx="733.402161"
   sodipodi:cy="414.95816"
   sodipodi:r1="122.340401"
   sodipodi:r2="120.728241"
   sodipodi:arg1="-0.1430449"
   sodipodi:arg2="2.67274547"
   points="854.493,397.5176 625.7017,469.5102 831.3587,488.25 618.6724,377.3766 750.8427,536.049 678.8501,307.2577 660.1103,512.9147 770.9838,300.2283 612.3113,432.3987 841.1026,360.4061 635.4456,341.6663 848.132,452.5397 715.9616,293.8673 787.9542,522.6586 806.694,317.0016 695.8206,529.688 854.493,397.5176 "
   transform="matrix(0.731058,-0.682314,0.682314,0.731058,1.585104,528.6584)" /><polygon
   sodipodi:type="star"
   style="font-size:12;fill:#808080;fill-rule:evenodd;stroke:url(#radialGradient1483);stroke-width:2.5;stroke-linecap:round;stroke-dasharray:10 2.5;stroke-dashoffset:1.75;"
   id="polygon1544"
   sodipodi:sides="8"
   sodipodi:cx="733.402161"
   sodipodi:cy="414.95816"
   sodipodi:r1="122.340401"
   sodipodi:r2="120.728241"
   sodipodi:arg1="-0.1430449"
   sodipodi:arg2="2.67274547"
   points="854.493,397.5176 625.7017,469.5102 831.3587,488.25 618.6724,377.3766 750.8427,536.049 678.8501,307.2577 660.1103,512.9147 770.9838,300.2283 612.3113,432.3987 841.1026,360.4061 635.4456,341.6663 848.132,452.5397 715.9616,293.8673 787.9542,522.6586 806.694,317.0016 695.8206,529.688 854.493,397.5176 "
   transform="matrix(0.999763,-2.172716e-2,2.172716e-2,0.999763,148.6216,159.5141)" /></g></g></svg>
