<?xml version="1.0" encoding="UTF-8" standalone="no"?>
<!DOCTYPE svg PUBLIC "-//W3C//DTD SVG 1.0//EN"
"http://www.w3.org/TR/2001/REC-SVG-20010904/DTD/svg10.dtd">
<!-- Created with Sodipodi ("http://www.sodipodi.com/") -->
<svg
   id="svg602"
   sodipodi:version="0.34"
   xmlns="http://www.w3.org/2000/svg"
   xmlns:sodipodi="http://sodipodi.sourceforge.net/DTD/sodipodi-0.dtd"
   xmlns:xlink="http://www.w3.org/1999/xlink"
   width="210mm"
   height="297mm"
   xml:space="preserve"
   sodipodi:docbase="/home/rams/MyImages"
   sodipodi:docname="/home/rams/MyImages/img_round_cube"><defs
   id="defs604"><linearGradient
   id="linearGradient1251"><stop
   style="stop-color:#000000;stop-opacity:1;"
   offset="0"
   id="stop1252" /><stop
   style="stop-color:#ffffff;stop-opacity:1;"
   offset="1"
   id="stop1253" /></linearGradient><linearGradient
   xlink:href="#linearGradient1251"
   id="linearGradient1254"
   x1="-0.35466456"
   y1="0.10934012"
   x2="0.94386238"
   y2="0.62499946" /><radialGradient
   xlink:href="#linearGradient1251"
   id="radialGradient1255"
   cx="-0.13221818"
   cy="0.4248119"
   r="1.25262201"
   fx="-0.13221818"
   fy="0.4248119" /><linearGradient
   xlink:href="#linearGradient1251"
   id="linearGradient1256"
   x1="1.31509352"
   y1="3.90076898e-2"
   x2="2.75763702e-2"
   y2="0.8593753" /><linearGradient
   xlink:href="#linearGradient1251"
   id="linearGradient1257"
   x1="1.16562808"
   y1="0.73447412"
   x2="0.12545329"
   y2="-3.9060697e-2" /><linearGradient
   xlink:href="#linearGradient1251"
   id="linearGradient1258"
   x1="-0.26932105"
   y1="0.64063275"
   x2="1.0627408"
   y2="0.3203125" /><linearGradient
   xlink:href="#linearGradient1251"
   id="linearGradient1259"
   x1="1.10103381"
   y1="3.90995815e-2"
   x2="0.36472389"
   y2="1.06250048" /><linearGradient
   xlink:href="#linearGradient1251"
   id="linearGradient1260"
   x1="1.21434271"
   y1="0.81251073"
   x2="4.33382243e-2"
   y2="0.14062513" /><linearGradient
   xlink:href="#linearGradient1251"
   id="linearGradient1261"
   x1="1.07152498"
   y1="0.92968732"
   x2="-6.06837422e-2"
   y2="0.24218746" /><radialGradient
   xlink:href="#linearGradient1251"
   id="radialGradient1262"
   cx="1.07260048"
   cy="0.88886958"
   r="1.10946"
   fx="1.07260048"
   fy="0.88886958" /><radialGradient
   xlink:href="#linearGradient1251"
   id="radialGradient1263"
   cx="-9.41583291e-2"
   cy="0.81046134"
   r="1.36225021"
   fx="-9.41583291e-2"
   fy="0.81046134" /><radialGradient
   xlink:href="#linearGradient1251"
   id="radialGradient1264"
   cx="1.08336806"
   cy="0.87582093"
   r="1.46946609"
   fx="1.08336806"
   fy="0.87582093" /><linearGradient
   xlink:href="#linearGradient1251"
   id="linearGradient1265"
   x1="-0.13127299"
   y1="0.90625638"
   x2="0.98776823"
   y2="-7.03124776e-2" /><linearGradient
   xlink:href="#linearGradient1251"
   id="linearGradient1266"
   x1="1.2031672"
   y1="0.91404629"
   x2="-2.53952667e-2"
   y2="3.12494934e-2" /><linearGradient
   xlink:href="#linearGradient1251"
   id="linearGradient1267"
   x1="0.23224932"
   y1="0.96155107"
   x2="0.32018352"
   y2="8.65390301e-2"
   gradientTransform="matrix(1,0,8.697509e-5,1,4.022293e-7,1.64429e-7)"
   spreadMethod="reflect" /><radialGradient
   xlink:href="#linearGradient1251"
   id="radialGradient1268"
   cx="1.03534913"
   cy="0.80735147"
   r="1.47071695"
   fx="1.03534913"
   fy="0.80735147"
   spreadMethod="pad"
   gradientTransform="matrix(1,0,6.118005e-6,1,-7.509203e-8,1.580279e-7)" /><radialGradient
   xlink:href="#linearGradient1251"
   id="radialGradient1269"
   cx="1.076352"
   cy="0.81081587"
   r="1.38355207"
   fx="1.076352"
   fy="0.81081587"
   spreadMethod="pad" /><radialGradient
   xlink:href="#linearGradient1251"
   id="radialGradient1270"
   cx="1.09501362"
   cy="0.86240846"
   r="1.39081025"
   fx="1.09501362"
   fy="0.86240846"
   gradientTransform="matrix(1,0,1.255938e-5,1,4.022293e-7,1.64429e-7)" /><linearGradient
   xlink:href="#linearGradient1251"
   id="linearGradient1271"
   x1="0.19337869"
   y1="1.03774786"
   x2="0.27902475"
   y2="0.12264188"
   gradientTransform="matrix(1,0,2.663978e-5,1,-1.036e-7,1.373961e-7)" /><radialGradient
   xlink:href="#linearGradient1251"
   id="radialGradient1272"
   cx="0.17313391"
   cy="1.03604555"
   r="1.31799769"
   fx="0.17313391"
   fy="1.03604555"
   spreadMethod="pad"
   gradientTransform="matrix(1,0,2.136651e-6,1,-1.036e-7,1.373961e-7)" /><linearGradient
   xlink:href="#linearGradient1251"
   id="linearGradient1273"
   x1="0.8153314"
   y1="1.01925039"
   x2="0.69437647"
   y2="0.16346279"
   gradientTransform="matrix(1,0,7.891528e-5,1,-7.509203e-8,1.580279e-7)"
   spreadMethod="reflect" /><radialGradient
   xlink:href="#linearGradient1251"
   id="radialGradient1274"
   cx="1.29504943"
   cy="1.19049692"
   r="1.64650774"
   fx="1.29504943"
   fy="1.19049692"
   spreadMethod="pad" /><linearGradient
   xlink:href="#linearGradient1251"
   id="linearGradient1275"
   x1="9.3663983e-2"
   y1="1.01824641"
   x2="9.87802148e-2"
   y2="0.22727291"
   spreadMethod="reflect" /><linearGradient
   xlink:href="#linearGradient1251"
   id="linearGradient1276"
   x1="0.6854443"
   y1="0.63938421"
   x2="0.77549136"
   y2="0.19672146"
   spreadMethod="reflect"
   gradientTransform="matrix(1,0,3.175806e-5,1,2.475647e-7,1.795163e-7)" /><linearGradient
   xlink:href="#linearGradient1251"
   id="linearGradient1277"
   x1="1.05144811"
   y1="1.02481663"
   x2="0.29980206"
   y2="-5.78509793e-2"
   gradientTransform="matrix(1,0,7.151804e-6,1,2.475647e-7,1.795163e-7)" /><linearGradient
   xlink:href="#linearGradient1251"
   id="linearGradient1278"
   x1="0.32307741"
   y1="-2.70903111e-2"
   x2="0.29757756"
   y2="0.63636523" /><linearGradient
   xlink:href="#linearGradient1251"
   id="linearGradient1279"
   x1="0.41383713"
   y1="0.96364623"
   x2="0.44098866"
   y2="0.1454553"
   spreadMethod="reflect" /><linearGradient
   xlink:href="#linearGradient1251"
   id="linearGradient1280"
   x1="0.48969227"
   y1="9.27670859e-3"
   x2="0.4407109"
   y2="0.75000048"
   gradientTransform="matrix(1,0,9.095927e-6,1,4.330722e-7,1.096973e-7)"
   spreadMethod="reflect" /><linearGradient
   xlink:href="#linearGradient1251"
   id="linearGradient1281"
   x1="0.55322802"
   y1="4.54645827e-2"
   x2="0.58062762"
   y2="0.81818223"
   spreadMethod="reflect" /><linearGradient
   xlink:href="#linearGradient1251"
   id="linearGradient1282"
   x1="0.24265429"
   y1="1.01614499"
   x2="1.00393689"
   y2="0.25560561"
   gradientTransform="matrix(1,2.923603e-5,1.375622e-5,1,3.528529e-7,-5.207141e-7)" /><radialGradient
   xlink:href="#linearGradient1251"
   id="radialGradient1283"
   cx="0.88745433"
   cy="0.11927222"
   r="1.16160488"
   fx="0.88745433"
   fy="0.11927222" /><radialGradient
   xlink:href="#linearGradient1251"
   id="radialGradient1284"
   cx="0.83436906"
   cy="-5.50407954e-2"
   r="1.33237779"
   fx="0.83436906"
   fy="-5.50407954e-2"
   gradientTransform="matrix(1,0,1.748226e-6,1,4.330722e-7,1.096973e-7)" /><radialGradient
   xlink:href="#linearGradient1251"
   id="radialGradient1285"
   cx="0.68359065"
   cy="-9.17167813e-2"
   r="1.23171186"
   fx="0.68359065"
   fy="-9.17167813e-2" /><linearGradient
   xlink:href="#linearGradient1251"
   id="linearGradient1286"
   x1="0.45182458"
   y1="1.19983983"
   x2="0.84220958"
   y2="0.16060534" /><linearGradient
   xlink:href="#linearGradient1251"
   id="linearGradient1287"
   x1="1.07050347"
   y1="0.33918846"
   x2="0.10272031"
   y2="-0.20934924" /><linearGradient
   xlink:href="#linearGradient1251"
   id="linearGradient1288"
   x1="0.27321965"
   y1="-0.64696479"
   x2="1.07573307"
   y2="0.77106661"
   gradientTransform="matrix(1,5.487684e-5,2.564752e-5,1,4.973369e-7,-2.048899e-7)" /><radialGradient
   xlink:href="#linearGradient1251"
   id="radialGradient1289"
   cx="0.62106031"
   cy="1.44895339"
   r="1.75471961"
   fx="0.62106031"
   fy="1.44895339" /><radialGradient
   xlink:href="#linearGradient1251"
   id="radialGradient1290"
   cx="0.11084788"
   cy="0.8594451"
   r="1.18187082"
   fx="0.11084788"
   fy="0.8594451" /><radialGradient
   xlink:href="#linearGradient1251"
   id="radialGradient1291"
   cx="-0.18308163"
   cy="0.5167318"
   r="1.42274523"
   fx="-0.18308163"
   fy="0.5167318"
   gradientTransform="matrix(1,4.07464e-5,1.93903e-5,1,3.528529e-7,-5.207141e-7)" /><radialGradient
   xlink:href="#linearGradient1251"
   id="radialGradient1292"
   cx="0.41633809"
   cy="-0.20977579"
   r="1.23591876"
   fx="0.41633809"
   fy="-0.20977579"
   gradientTransform="translate(-3.149634e-7,1.061062e-6)" /><linearGradient
   xlink:href="#linearGradient1251"
   id="linearGradient1293"
   x1="0.73544908"
   y1="-7.88085312e-2"
   x2="5.23653403e-2"
   y2="0.83482295"
   gradientTransform="translate(-3.149634e-7,1.061062e-6)" /><linearGradient
   xlink:href="#linearGradient1251"
   id="linearGradient1294"
   x1="-5.85440099e-2"
   y1="0.10139339"
   x2="0.91597909"
   y2="1.0699414" /><linearGradient
   xlink:href="#linearGradient1251"
   id="linearGradient1295"
   x1="-0.18193759"
   y1="0.33472478"
   x2="0.65165985"
   y2="-0.26822278"
   gradientTransform="matrix(1,5.239467e-5,2.443174e-5,1,4.296951e-7,-1.335943e-6)" /><linearGradient
   xlink:href="#linearGradient1251"
   id="linearGradient1296"
   x1="0.81280345"
   y1="1.60686171"
   x2="-8.47424045e-2"
   y2="0.22958377"
   gradientTransform="translate(6.926155e-8,1.349022e-6)" /><linearGradient
   xlink:href="#linearGradient1251"
   id="linearGradient1297"
   x1="1.317819"
   y1="0.93757778"
   x2="0.27906963"
   y2="0.11718839" /><radialGradient
   xlink:href="#linearGradient1251"
   id="radialGradient1298"
   cx="7.73648024e-2"
   cy="0.40187943"
   r="1.08687687"
   fx="7.73648024e-2"
   fy="0.40187943"
   gradientTransform="matrix(1,7.870088e-6,3.732318e-6,1,4.973369e-7,-2.048899e-7)" /><radialGradient
   xlink:href="#linearGradient1251"
   id="radialGradient1299"
   cx="0.60005301"
   cy="1.4019177"
   r="1.42417502"
   fx="0.60005301"
   fy="1.4019177"
   gradientTransform="matrix(1,1.01778e-5,4.799938e-6,1,4.296951e-7,-1.335943e-6)" /><radialGradient
   xlink:href="#linearGradient1251"
   id="radialGradient1300"
   cx="0.35772705"
   cy="1.14309847"
   r="1.19686925"
   fx="0.35772705"
   fy="1.14309847"
   gradientTransform="translate(6.926155e-8,1.349022e-6)" /><radialGradient
   xlink:href="#linearGradient1251"
   id="radialGradient1911"
   cx="1.05159879"
   cy="0.79095596"
   r="1.11211264"
   fx="1.05159879"
   fy="0.79095596" /><linearGradient
   xlink:href="#linearGradient1251"
   id="linearGradient1915"
   x1="-0.43068618"
   y1="3.10085677e-2"
   x2="0.27737063"
   y2="0.4374969"
   gradientTransform="translate(-2.233978e-7,-1.717068e-6)" /><linearGradient
   xlink:href="#linearGradient1251"
   id="linearGradient1916"
   x1="-5.84547073e-2"
   y1="5.4226324e-2"
   x2="0.73722386"
   y2="0.69531029"
   gradientTransform="translate(-2.233978e-7,-1.717068e-6)" /><linearGradient
   xlink:href="#linearGradient1251"
   id="linearGradient1922"
   x1="0.66195834"
   y1="1.44533014"
   x2="1.42492473"
   y2="0.62318701" /><radialGradient
   xlink:href="#linearGradient1251"
   id="radialGradient1923"
   cx="0.55699784"
   cy="-0.24139839"
   r="1.41840649"
   fx="0.55699784"
   fy="-0.24139839" /><radialGradient
   xlink:href="#linearGradient1251"
   id="radialGradient1924"
   cx="0.27095994"
   cy="0.88912624"
   r="1.24125528"
   fx="0.27095994"
   fy="0.88912624" /><linearGradient
   xlink:href="#linearGradient1251"
   id="linearGradient1982"
   x1="0.10678283"
   y1="0.8062923"
   x2="0.92404485"
   y2="0.26368988"
   gradientTransform="matrix(1,-1.76017e-6,-5.730493e-8,1,-1.135182e-7,2.058186e-7)" /><linearGradient
   xlink:href="#linearGradient1251"
   id="linearGradient1983"
   x1="1.06738031"
   y1="0.4830907"
   x2="7.12671727e-2"
   y2="0.1183897"
   gradientTransform="matrix(1,2.931856e-5,1.375301e-5,1,7.097408e-8,-2.604351e-7)" /><radialGradient
   xlink:href="#linearGradient1251"
   id="radialGradient1984"
   cx="1.22168195"
   cy="0.88947904"
   r="1.53561199"
   fx="1.22168195"
   fy="0.88947904"
   gradientTransform="matrix(1,4.262398e-5,1.943174e-5,1,7.097408e-8,-2.604351e-7)" /><radialGradient
   xlink:href="#linearGradient1251"
   id="radialGradient1985"
   cx="1.01861465"
   cy="0.70160651"
   r="1.26348257"
   fx="1.01861465"
   fy="0.70160651"
   gradientTransform="matrix(1,-8.072606e-6,-1.748806e-7,1,1.947983e-7,-2.216627e-7)" /><linearGradient
   xlink:href="#linearGradient1251"
   id="linearGradient1986"
   x1="1.17043841"
   y1="0.63005012"
   x2="9.95472893e-2"
   y2="-4.73750494e-2"
   gradientTransform="matrix(1,-8.072606e-6,-1.748806e-7,1,1.947983e-7,-2.216627e-7)" /><linearGradient
   xlink:href="#linearGradient1251"
   id="linearGradient1987"
   x1="-0.24790224"
   y1="0.41618228"
   x2="0.87429231"
   y2="0.73559052"
   gradientTransform="matrix(1,5.494511e-5,2.575368e-5,1,-1.228532e-7,-2.938248e-7)" /><linearGradient
   xlink:href="#linearGradient1251"
   id="linearGradient1988"
   x1="-9.92933437e-2"
   y1="0.31820503"
   x2="0.96737111"
   y2="1.14685941" /><linearGradient
   xlink:href="#linearGradient1251"
   id="linearGradient1989"
   x1="-0.41901857"
   y1="0.82387525"
   x2="1.18648028"
   y2="0.95040554" /><linearGradient
   xlink:href="#linearGradient1251"
   id="linearGradient1990"
   x1="-0.18223117"
   y1="0.99388313"
   x2="0.39309752"
   y2="-2.3024207e-2"
   gradientTransform="translate(7.578379e-7,-2.176675e-6)" /><linearGradient
   xlink:href="#linearGradient1251"
   id="linearGradient1991"
   x1="1.44689727"
   y1="0.17190367"
   x2="-4.9582988e-2"
   y2="7.03121349e-2" /><linearGradient
   xlink:href="#linearGradient1251"
   id="linearGradient1992"
   x1="4.20606397e-2"
   y1="0.10940633"
   x2="0.98319471"
   y2="0.82812738" /></defs><sodipodi:namedview
   id="base" /><rect
   style="font-size:12;fill:url(#linearGradient1278);fill-rule:evenodd;stroke:url(#radialGradient1285);stroke-width:1.221339;"
   id="rect1187"
   width="69.2982314"
   height="56.6499268"
   x="366.53793"
   y="412.711614"
   transform="matrix(1,0,-0.62025,0.784404,0,0)"
   ry="13.4544063" /><rect
   style="font-size:12;fill:url(#linearGradient1280);fill-rule:evenodd;stroke:url(#radialGradient1284);stroke-width:1.221339;"
   id="rect1188"
   width="69.2982314"
   height="56.6498597"
   x="440.973466"
   y="413.125465"
   transform="matrix(1,0,-0.62025,0.784404,0,0)"
   ry="12.0381454" /><rect
   style="font-size:12;fill:url(#linearGradient1281);fill-rule:evenodd;stroke:url(#radialGradient1283);stroke-width:1.221339;"
   id="rect1189"
   width="69.2982314"
   height="56.6499603"
   x="515.437953"
   y="413.126867"
   transform="matrix(1,0,-0.62025,0.784404,0,0)"
   ry="12.7462759" /><rect
   style="font-size:12;fill:url(#linearGradient1276);fill-rule:evenodd;stroke:url(#linearGradient1277);stroke-width:1.221339;"
   id="rect1190"
   width="69.2982314"
   height="56.6499603"
   x="367.764407"
   y="474.025589"
   transform="matrix(1,0,-0.62025,0.784404,0,0)"
   ry="14.8706671" /><rect
   style="font-size:12;fill:url(#linearGradient1275);fill-rule:evenodd;stroke:url(#radialGradient1274);stroke-width:1.221827;"
   id="rect1191"
   width="69.2982314"
   height="56.6498895"
   x="442.310195"
   y="475.269111"
   transform="matrix(1,0,-0.62025,0.784404,0,0)"
   ry="12.7462759" /><rect
   style="font-size:12;fill:url(#linearGradient1279);fill-rule:evenodd;stroke:url(#radialGradient1269);stroke-width:1.221339;"
   id="rect1192"
   width="69.2982314"
   height="56.6498895"
   x="516.854328"
   y="474.800422"
   transform="matrix(1,0,-0.62025,0.784404,0,0)"
   ry="14.1624593" /><rect
   style="font-size:12;fill:url(#linearGradient1271);fill-rule:evenodd;stroke:url(#radialGradient1272);stroke-width:1.221339;"
   id="rect1193"
   width="69.2982314"
   height="56.6498597"
   x="368.316377"
   y="536.113443"
   transform="matrix(1,0,-0.62025,0.784404,0,0)"
   ry="14.1625367" /><rect
   style="font-size:12;fill:url(#linearGradient1267);stroke:url(#radialGradient1270);stroke-width:1.221339;"
   id="rect1194"
   width="69.2982314"
   height="56.6498597"
   x="442.862282"
   y="537.357949"
   transform="matrix(1,0,-0.62025,0.784404,0,0)"
   ry="13.4543289" /><rect
   style="font-size:12;fill:url(#linearGradient1273);fill-rule:evenodd;stroke:url(#radialGradient1268);stroke-width:1.221339;"
   id="rect1195"
   width="69.2982314"
   height="56.6498224"
   x="517.406297"
   y="536.888693"
   transform="matrix(1,0,-0.62025,0.784404,0,0)"
   ry="12.1596895" /><rect
   style="font-size:12;fill:url(#linearGradient1282);fill-rule:evenodd;stroke:url(#radialGradient1291);stroke-width:1.265237;"
   id="rect1223"
   width="57.8486874"
   height="49.3433742"
   x="-143.240323"
   y="468.61313"
   transform="matrix(0.61419,-0.789158,0.65579,0.754943,0,0)"
   ry="11.9327251" /><rect
   style="font-size:12;fill:url(#linearGradient1286);fill-rule:evenodd;stroke:url(#radialGradient1290);stroke-width:1.265237;"
   id="rect1224"
   width="57.848665"
   height="49.3433928"
   x="-81.759855"
   y="469.036096"
   transform="matrix(0.61419,-0.789158,0.65579,0.754943,0,0)"
   ry="14.7250489" /><rect
   style="font-size:12;fill:url(#linearGradient1287);fill-rule:evenodd;stroke:url(#radialGradient1289);stroke-width:1.265237;"
   id="rect1225"
   width="57.848665"
   height="49.3433965"
   x="-19.6003676"
   y="468.974559"
   transform="matrix(0.61419,-0.789158,0.65579,0.754943,0,0)"
   ry="13.4579825" /><rect
   style="font-size:12;fill:url(#linearGradient1288);fill-rule:evenodd;stroke:url(#radialGradient1298);stroke-width:1.265237;"
   id="rect1226"
   width="57.848665"
   height="49.3433742"
   x="-144.002553"
   y="522.891061"
   transform="matrix(0.61419,-0.789158,0.65579,0.754943,0,0)"
   ry="12.6729636" /><rect
   style="font-size:12;fill:url(#linearGradient1293);fill-rule:evenodd;stroke:url(#radialGradient1292);stroke-width:1.265237;"
   id="rect1227"
   width="57.848665"
   height="49.3433742"
   x="-81.8059042"
   y="522.828033"
   transform="matrix(0.61419,-0.789158,0.65579,0.754943,0,0)"
   ry="12.7177514" /><rect
   style="font-size:12;fill:url(#linearGradient1294);fill-rule:evenodd;stroke:url(#radialGradient1923);stroke-width:1.265237;"
   id="rect1228"
   width="57.848665"
   height="49.3433481"
   x="-19.5617534"
   y="522.992901"
   transform="matrix(0.61419,-0.789158,0.65579,0.754943,0,0)"
   ry="12.3700679" /><rect
   style="font-size:12;fill:url(#linearGradient1295);fill-rule:evenodd;stroke:url(#radialGradient1299);stroke-width:1.265237;"
   id="rect1229"
   width="57.848665"
   height="49.3433444"
   x="-143.541699"
   y="576.971684"
   transform="matrix(0.61419,-0.789158,0.65579,0.754943,0,0)"
   ry="13.0654348" /><rect
   style="font-size:12;fill:url(#linearGradient1296);fill-rule:evenodd;stroke:url(#radialGradient1300);stroke-width:1.265237;"
   id="rect1230"
   width="57.848665"
   height="49.3433257"
   x="-81.3450583"
   y="576.909014"
   transform="matrix(0.61419,-0.789158,0.65579,0.754943,0,0)"
   ry="10.5420005" /><rect
   style="font-size:12;fill:url(#linearGradient1922);fill-rule:evenodd;stroke:url(#radialGradient1924);stroke-width:1.265237;"
   id="rect1231"
   width="57.848665"
   height="49.3433257"
   x="-19.1009281"
   y="577.073764"
   transform="matrix(0.61419,-0.789158,0.65579,0.754943,0,0)"
   ry="9.7121166" /><rect
   style="font-size:12;fill:url(#linearGradient1265);fill-rule:evenodd;"
   id="rect1242"
   width="69.2982314"
   height="67.6480943"
   x="191.74811"
   y="109.896011"
   transform="matrix(1,0,-2.482673e-2,0.999692,0,0)"
   ry="11.0009429" /><rect
   style="font-size:12;fill:url(#linearGradient1266);fill-rule:evenodd;"
   id="rect1243"
   width="69.2982314"
   height="67.6481093"
   x="266.210308"
   y="109.811727"
   transform="matrix(1,0,-2.482673e-2,0.999692,0,0)"
   ry="13.3583058" /><rect
   style="font-size:12;fill:url(#linearGradient1259);fill-rule:evenodd;"
   id="rect1244"
   width="69.2982314"
   height="67.6481543"
   x="117.837281"
   y="182.158395"
   transform="matrix(1,0,-2.482673e-2,0.999692,0,0)"
   ry="16.5012924" /><rect
   style="font-size:12;fill:url(#linearGradient1254);fill-rule:evenodd;stroke:url(#radialGradient1255);stroke-width:1.254854;"
   id="rect1245"
   width="69.2982314"
   height="67.6481843"
   x="192.34408"
   y="182.072423"
   transform="matrix(1,0,-2.482673e-2,0.999692,0,0)"
   ry="14.1440525" /><rect
   style="font-size:12;fill:url(#linearGradient1256);fill-rule:evenodd;stroke:url(#radialGradient1262);stroke-width:1.254603;"
   id="rect1246"
   width="69.2982314"
   height="67.6481243"
   x="266.907681"
   y="182.298244"
   transform="matrix(1,0,-2.482673e-2,0.999692,0,0)"
   ry="12.5725188" /><rect
   style="font-size:12;fill:url(#linearGradient1257);fill-rule:evenodd;"
   id="rect1247"
   width="69.2982314"
   height="67.6481468"
   x="118.350311"
   y="254.729893"
   transform="matrix(1,0,-2.482673e-2,0.999692,0,0)"
   ry="13.3581425" /><rect
   style="font-size:12;fill:url(#linearGradient1258);fill-rule:evenodd;stroke:url(#radialGradient1263);stroke-width:1.254603;"
   id="rect1248"
   width="69.2982314"
   height="67.6481243"
   x="192.85711"
   y="254.643906"
   transform="matrix(1,0,-2.482673e-2,0.999692,0,0)"
   ry="13.3581425" /><rect
   style="font-size:12;fill:url(#linearGradient1260);fill-rule:evenodd;stroke:url(#radialGradient1264);stroke-width:1.254603;"
   id="rect1249"
   width="69.2982314"
   height="67.6481243"
   x="267.420682"
   y="254.869862"
   transform="matrix(1,0,-2.482673e-2,0.999692,0,0)"
   ry="12.572395" /><rect
   style="font-size:12;fill:url(#linearGradient1261);fill-rule:evenodd;"
   id="rect1250"
   width="69.2982314"
   height="67.6481843"
   x="118.082622"
   y="109.780886"
   transform="matrix(1,0,-2.482673e-2,0.999692,0,0)"
   ry="11.7866924" /><path
   sodipodi:type="arc"
   style="fill-rule:evenodd;stroke:url(#radialGradient1911);fill:url(#linearGradient1915);fill-opacity:1;stroke-opacity:1;stroke-width:0.625;stroke-linejoin:miter;stroke-linecap:butt;stroke-dasharray:none;"
   id="path1914"
   d="M 65.72797 327.3006 A 4.401428 4.401443 0 1 0 56.92511 327.3006 A 4.401428 4.401443 0 1 0  65.72797 327.3006 z"
   sodipodi:cx="61.3265381"
   sodipodi:cy="327.300598"
   sodipodi:rx="4.40142822"
   sodipodi:ry="4.40144348"
   transform="matrix(1.489636,0,0,1.606255,166.4735,-273.6348)" /><path
   sodipodi:type="arc"
   style="fill-rule:evenodd;stroke:url(#radialGradient1911);fill:url(#linearGradient1916);fill-opacity:1;stroke-opacity:1;stroke-width:0.625;stroke-linejoin:miter;stroke-linecap:butt;stroke-dasharray:none;"
   id="path1917"
   d="M 65.72797 327.3006 A 4.401428 4.401443 0 1 0 56.92511 327.3006 A 4.401428 4.401443 0 1 0  65.72797 327.3006 z"
   sodipodi:cx="61.3265381"
   sodipodi:cy="327.300598"
   sodipodi:rx="4.40142822"
   sodipodi:ry="4.40144348"
   transform="matrix(1.489636,0,0,1.606255,167.8539,-345.9046)" /><path
   sodipodi:type="arc"
   style="fill-rule:evenodd;stroke:url(#radialGradient1911);fill:url(#linearGradient1297);fill-opacity:1;stroke-opacity:1;stroke-width:0.625;stroke-linejoin:miter;stroke-linecap:butt;stroke-dasharray:none;"
   id="path1912"
   d="M 65.72797 327.3006 A 4.401428 4.401443 0 1 0 56.92511 327.3006 A 4.401428 4.401443 0 1 0  65.72797 327.3006 z"
   sodipodi:cx="61.3265381"
   sodipodi:cy="327.300598"
   sodipodi:rx="4.40142822"
   sodipodi:ry="4.40144348"
   transform="matrix(1.266667,0,0,1.199998,497.1463,-108.5936)" /><path
   sodipodi:type="arc"
   style="fill-rule:evenodd;stroke:url(#radialGradient1911);fill:url(#linearGradient1992);fill-opacity:1;stroke-opacity:1;stroke-width:0.625;stroke-linejoin:miter;stroke-linecap:butt;stroke-dasharray:none;"
   id="path1919"
   d="M 65.72797 327.3006 A 4.401428 4.401443 0 1 0 56.92511 327.3006 A 4.401428 4.401443 0 1 0  65.72797 327.3006 z"
   sodipodi:cx="61.3265381"
   sodipodi:cy="327.300598"
   sodipodi:rx="4.40142822"
   sodipodi:ry="4.40144348"
   transform="matrix(1.489636,0,0,1.606255,92.62623,-345.1189)" /><path
   sodipodi:type="arc"
   style="fill-rule:evenodd;stroke:url(#radialGradient1911);fill:url(#linearGradient1916);fill-opacity:1;stroke-opacity:1;stroke-width:0.625;stroke-linejoin:miter;stroke-linecap:butt;stroke-dasharray:none;"
   id="path1920"
   d="M 65.72797 327.3006 A 4.401428 4.401443 0 1 0 56.92511 327.3006 A 4.401428 4.401443 0 1 0  65.72797 327.3006 z"
   sodipodi:cx="61.3265381"
   sodipodi:cy="327.300598"
   sodipodi:rx="4.40142822"
   sodipodi:ry="4.40144348"
   transform="matrix(1.489636,0,0,1.606255,91.2459,-274.4202)" /><path
   sodipodi:type="arc"
   style="fill-rule:evenodd;stroke:url(#radialGradient1911);fill:url(#linearGradient1915);fill-opacity:1;stroke-opacity:1;stroke-width:0.625;stroke-linejoin:miter;stroke-linecap:butt;stroke-dasharray:none;"
   id="path1925"
   d="M 65.72797 327.3006 A 4.401428 4.401443 0 1 0 56.92511 327.3006 A 4.401428 4.401443 0 1 0  65.72797 327.3006 z"
   sodipodi:cx="61.3265381"
   sodipodi:cy="327.300598"
   sodipodi:rx="4.40142822"
   sodipodi:ry="4.40144348"
   transform="matrix(1.254432,0,0,1.338548,247.4985,61.82362)" /><path
   sodipodi:type="arc"
   style="fill-rule:evenodd;stroke:url(#radialGradient1911);fill:url(#linearGradient1916);fill-opacity:1;stroke-opacity:1;stroke-width:0.625;stroke-linejoin:miter;stroke-linecap:butt;stroke-dasharray:none;"
   id="path1927"
   d="M 65.72797 327.3006 A 4.401428 4.401443 0 1 0 56.92511 327.3006 A 4.401428 4.401443 0 1 0  65.72797 327.3006 z"
   sodipodi:cx="61.3265381"
   sodipodi:cy="327.300598"
   sodipodi:rx="4.40142822"
   sodipodi:ry="4.40144348"
   transform="matrix(1.176031,0,0,1.249312,289.9205,41.14857)" /><path
   sodipodi:type="arc"
   style="fill-rule:evenodd;stroke:url(#radialGradient1911);fill:url(#linearGradient1991);fill-opacity:1;stroke-opacity:1;stroke-width:0.625;stroke-linejoin:miter;stroke-linecap:butt;stroke-dasharray:none;"
   id="path1928"
   d="M 65.72797 327.3006 A 4.401428 4.401443 0 1 0 56.92511 327.3006 A 4.401428 4.401443 0 1 0  65.72797 327.3006 z"
   sodipodi:cx="61.3265381"
   sodipodi:cy="327.300598"
   sodipodi:rx="4.40142822"
   sodipodi:ry="4.40144348"
   transform="matrix(1.176031,0,0,1.249312,255.4123,1.871765)" /><path
   sodipodi:type="arc"
   style="fill-rule:evenodd;stroke:url(#radialGradient1911);fill:url(#linearGradient1916);fill-opacity:1;stroke-opacity:1;stroke-width:0.625;stroke-linejoin:miter;stroke-linecap:butt;stroke-dasharray:none;"
   id="path1929"
   d="M 65.72797 327.3006 A 4.401428 4.401443 0 1 0 56.92511 327.3006 A 4.401428 4.401443 0 1 0  65.72797 327.3006 z"
   sodipodi:cx="61.3265381"
   sodipodi:cy="327.300598"
   sodipodi:rx="4.40142822"
   sodipodi:ry="4.40144348"
   transform="matrix(1.176031,0,0,1.249312,217.4533,49.78963)" /><rect
   style="font-size:12;fill:url(#linearGradient1282);fill-rule:evenodd;stroke:url(#radialGradient1291);stroke-width:1;"
   id="rect1930"
   width="45.5625236"
   height="39.1355173"
   x="103.391872"
   y="681.256373"
   transform="matrix(0.663088,-0.748542,0.703079,0.711111,0,0)"
   ry="9.46415544" /><rect
   style="font-size:12;fill:url(#linearGradient1286);fill-rule:evenodd;stroke:url(#radialGradient1290);stroke-width:1;"
   id="rect1931"
   width="45.5625045"
   height="39.1355288"
   x="151.814854"
   y="681.591822"
   transform="matrix(0.663088,-0.748542,0.703079,0.711111,0,0)"
   ry="11.6788196" /><rect
   style="font-size:12;fill:url(#linearGradient1287);fill-rule:evenodd;stroke:url(#radialGradient1289);stroke-width:1;"
   id="rect1932"
   width="45.5625045"
   height="39.1355326"
   x="200.772623"
   y="681.543055"
   transform="matrix(0.663088,-0.748542,0.703079,0.711111,0,0)"
   ry="10.6738773" /><rect
   style="font-size:12;fill:url(#linearGradient1288);fill-rule:evenodd;stroke:url(#radialGradient1298);stroke-width:1;"
   id="rect1933"
   width="45.5625045"
   height="39.1355173"
   x="102.791528"
   y="724.305603"
   transform="matrix(0.663088,-0.748542,0.703079,0.711111,0,0)"
   ry="10.051258" /><rect
   style="font-size:12;fill:url(#linearGradient1293);fill-rule:evenodd;stroke:url(#radialGradient1292);stroke-width:1;"
   id="rect1934"
   width="45.5625045"
   height="39.1355173"
   x="151.778584"
   y="724.255676"
   transform="matrix(0.663088,-0.748542,0.703079,0.711111,0,0)"
   ry="10.0867804" /><rect
   style="font-size:12;fill:url(#linearGradient1294);fill-rule:evenodd;stroke:url(#radialGradient1923);stroke-width:1;"
   id="rect1935"
   width="45.5625045"
   height="39.1354945"
   x="200.803033"
   y="724.386413"
   transform="matrix(0.663088,-0.748542,0.703079,0.711111,0,0)"
   ry="9.81102375" /><rect
   style="font-size:12;fill:url(#linearGradient1295);fill-rule:evenodd;stroke:url(#radialGradient1299);stroke-width:1;"
   id="rect1936"
   width="45.5625045"
   height="39.1354906"
   x="103.154503"
   y="767.198399"
   transform="matrix(0.663088,-0.748542,0.703079,0.711111,0,0)"
   ry="10.3625371" /><rect
   style="font-size:12;fill:url(#linearGradient1296);fill-rule:evenodd;stroke:url(#radialGradient1300);stroke-width:1;"
   id="rect1937"
   width="45.5625045"
   height="39.1354792"
   x="152.141552"
   y="767.148656"
   transform="matrix(0.663088,-0.748542,0.703079,0.711111,0,0)"
   ry="8.36113541" /><rect
   style="font-size:12;fill:url(#linearGradient1922);fill-rule:evenodd;stroke:url(#radialGradient1924);stroke-width:1;"
   id="rect1938"
   width="45.5625045"
   height="39.1354792"
   x="201.165985"
   y="767.279332"
   transform="matrix(0.663088,-0.748542,0.703079,0.711111,0,0)"
   ry="7.70293314" /><path
   sodipodi:type="arc"
   style="fill-rule:evenodd;stroke:url(#radialGradient1911);fill:url(#linearGradient1915);fill-opacity:1;stroke-opacity:1;stroke-width:0.625;stroke-linejoin:miter;stroke-linecap:butt;stroke-dasharray:none;"
   id="path1939"
   d="M 65.72797 327.3006 A 4.401428 4.401443 0 1 0 56.92511 327.3006 A 4.401428 4.401443 0 1 0  65.72797 327.3006 z"
   sodipodi:cx="61.3265381"
   sodipodi:cy="327.300598"
   sodipodi:rx="4.40142822"
   sodipodi:ry="4.40144348"
   transform="matrix(1.066668,0,0,1,571.4836,104.4957)" /><path
   sodipodi:type="arc"
   style="fill-rule:evenodd;stroke:url(#radialGradient1911);fill:url(#linearGradient1916);fill-opacity:1;stroke-opacity:1;stroke-width:0.625;stroke-linejoin:miter;stroke-linecap:butt;stroke-dasharray:none;"
   id="path1940"
   d="M 65.72797 327.3006 A 4.401428 4.401443 0 1 0 56.92511 327.3006 A 4.401428 4.401443 0 1 0  65.72797 327.3006 z"
   sodipodi:cx="61.3265381"
   sodipodi:cy="327.300598"
   sodipodi:rx="4.40142822"
   sodipodi:ry="4.40144348"
   transform="matrix(1.000002,0,0,0.933334,607.556,89.04996)" /><path
   sodipodi:type="arc"
   style="fill-rule:evenodd;stroke:url(#radialGradient1911);fill:url(#linearGradient1916);fill-opacity:1;stroke-opacity:1;stroke-width:0.625;stroke-linejoin:miter;stroke-linecap:butt;stroke-dasharray:none;"
   id="path1941"
   d="M 65.72797 327.3006 A 4.401428 4.401443 0 1 0 56.92511 327.3006 A 4.401428 4.401443 0 1 0  65.72797 327.3006 z"
   sodipodi:cx="61.3265381"
   sodipodi:cy="327.300598"
   sodipodi:rx="4.40142822"
   sodipodi:ry="4.40144348"
   transform="matrix(1.000002,0,0,0.933334,578.213,59.70685)" /><path
   sodipodi:type="arc"
   style="fill-rule:evenodd;stroke:url(#radialGradient1911);fill:url(#linearGradient1916);fill-opacity:1;stroke-opacity:1;stroke-width:0.625;stroke-linejoin:miter;stroke-linecap:butt;stroke-dasharray:none;"
   id="path1942"
   d="M 65.72797 327.3006 A 4.401428 4.401443 0 1 0 56.92511 327.3006 A 4.401428 4.401443 0 1 0  65.72797 327.3006 z"
   sodipodi:cx="61.3265381"
   sodipodi:cy="327.300598"
   sodipodi:rx="4.40142822"
   sodipodi:ry="4.40144348"
   transform="matrix(1.000002,0,0,0.933334,545.9357,95.50549)" /><rect
   style="font-size:12;fill:url(#linearGradient1983);fill-rule:evenodd;stroke:url(#radialGradient1984);stroke-width:1.265073;"
   id="rect1943"
   width="58.7540372"
   height="48.5706001"
   x="133.011432"
   y="-285.292526"
   transform="matrix(-0.604976,0.796244,-0.665485,-0.746412,0,0)"
   ry="11.7458461" /><rect
   style="font-size:12;fill:url(#linearGradient1982);fill-rule:evenodd;stroke:url(#radialGradient1290);stroke-width:1.265074;"
   id="rect1944"
   width="58.7540148"
   height="48.5706188"
   x="195.454053"
   y="-284.876203"
   transform="matrix(-0.604976,0.796244,-0.665485,-0.746412,0,0)"
   ry="14.4944384" /><rect
   style="font-size:12;fill:url(#linearGradient1986);fill-rule:evenodd;stroke:url(#radialGradient1985);stroke-width:1.265074;"
   id="rect1945"
   width="58.7540148"
   height="48.5706225"
   x="258.586311"
   y="-284.93671"
   transform="matrix(-0.604976,0.796244,-0.665485,-0.746412,0,0)"
   ry="13.2472161" /><rect
   style="font-size:12;fill:url(#linearGradient1987);fill-rule:evenodd;stroke:url(#radialGradient1298);stroke-width:1.265074;"
   id="rect1946"
   width="58.7540148"
   height="48.5706001"
   x="132.237277"
   y="-231.864752"
   transform="matrix(-0.604976,0.796244,-0.665485,-0.746412,0,0)"
   ry="12.4744912" /><rect
   style="font-size:12;fill:url(#linearGradient1293);fill-rule:evenodd;stroke:url(#radialGradient1292);stroke-width:1.265074;"
   id="rect1947"
   width="58.7540148"
   height="48.5706001"
   x="195.407304"
   y="-231.926735"
   transform="matrix(-0.604976,0.796244,-0.665485,-0.746412,0,0)"
   ry="12.5185775" /><rect
   style="font-size:12;fill:url(#linearGradient1294);fill-rule:evenodd;stroke:url(#radialGradient1923);stroke-width:1.265074;"
   id="rect1948"
   width="58.7540148"
   height="48.5705741"
   x="258.6255"
   y="-231.764386"
   transform="matrix(-0.604976,0.796244,-0.665485,-0.746412,0,0)"
   ry="12.1763391" /><rect
   style="font-size:12;fill:url(#linearGradient1295);fill-rule:evenodd;stroke:url(#radialGradient1299);stroke-width:1.265074;"
   id="rect1949"
   width="58.7540148"
   height="48.5705703"
   x="132.70535"
   y="-178.630979"
   transform="matrix(-0.604976,0.796244,-0.665485,-0.746412,0,0)"
   ry="12.8608159" /><rect
   style="font-size:12;fill:url(#linearGradient1296);fill-rule:evenodd;stroke:url(#radialGradient1300);stroke-width:1.265074;"
   id="rect1950"
   width="58.7540148"
   height="48.5705517"
   x="195.875392"
   y="-178.69265"
   transform="matrix(-0.604976,0.796244,-0.665485,-0.746412,0,0)"
   ry="10.3769008" /><rect
   style="font-size:12;fill:url(#linearGradient1922);fill-rule:evenodd;stroke:url(#radialGradient1924);stroke-width:1.265074;"
   id="rect1951"
   width="58.7540148"
   height="48.5705517"
   x="259.093529"
   y="-178.530465"
   transform="matrix(-0.604976,0.796244,-0.665485,-0.746412,0,0)"
   ry="9.56001508" /><path
   sodipodi:type="arc"
   style="fill-rule:evenodd;stroke:url(#radialGradient1911);fill:url(#linearGradient1915);fill-opacity:1;stroke-opacity:1;stroke-width:0.625;stroke-linejoin:miter;stroke-linecap:butt;stroke-dasharray:none;"
   id="path1952"
   d="M 65.72797 327.3006 A 4.401428 4.401443 0 1 0 56.92511 327.3006 A 4.401428 4.401443 0 1 0  65.72797 327.3006 z"
   sodipodi:cx="61.3265381"
   sodipodi:cy="327.300598"
   sodipodi:rx="4.40142822"
   sodipodi:ry="4.40144348"
   transform="matrix(-1.253945,3.926802e-2,8.351892e-4,-1.339092,80.9837,724.8956)" /><path
   sodipodi:type="arc"
   style="fill-rule:evenodd;stroke:url(#radialGradient1911);fill:url(#linearGradient1916);fill-opacity:1;stroke-opacity:1;stroke-width:0.625;stroke-linejoin:miter;stroke-linecap:butt;stroke-dasharray:none;"
   id="path1953"
   d="M 65.72797 327.3006 A 4.401428 4.401443 0 1 0 56.92511 327.3006 A 4.401428 4.401443 0 1 0  65.72797 327.3006 z"
   sodipodi:cx="61.3265381"
   sodipodi:cy="327.300598"
   sodipodi:rx="4.40142822"
   sodipodi:ry="4.40144348"
   transform="matrix(-1.175573,3.681377e-2,7.794899e-4,-1.249821,38.56553,746.9072)" /><path
   sodipodi:type="arc"
   style="fill-rule:evenodd;stroke:url(#radialGradient1911);fill:url(#linearGradient1916);fill-opacity:1;stroke-opacity:1;stroke-width:0.625;stroke-linejoin:miter;stroke-linecap:butt;stroke-dasharray:none;"
   id="path1954"
   d="M 65.72797 327.3006 A 4.401428 4.401443 0 1 0 56.92511 327.3006 A 4.401428 4.401443 0 1 0  65.72797 327.3006 z"
   sodipodi:cx="61.3265381"
   sodipodi:cy="327.300598"
   sodipodi:rx="4.40142822"
   sodipodi:ry="4.40144348"
   transform="matrix(-1.175573,3.681377e-2,7.794899e-4,-1.249821,73.03555,785.1198)" /><path
   sodipodi:type="arc"
   style="fill-rule:evenodd;stroke:url(#radialGradient1911);fill:url(#linearGradient1988);fill-opacity:1;stroke-opacity:1;stroke-width:0.625;stroke-linejoin:miter;stroke-linecap:butt;stroke-dasharray:none;"
   id="path1955"
   d="M 65.72797 327.3006 A 4.401428 4.401443 0 1 0 56.92511 327.3006 A 4.401428 4.401443 0 1 0  65.72797 327.3006 z"
   sodipodi:cx="61.3265381"
   sodipodi:cy="327.300598"
   sodipodi:rx="4.40142822"
   sodipodi:ry="4.40144348"
   transform="matrix(-1.175573,3.681377e-2,7.794899e-4,-1.249821,111.0095,735.9941)" /><rect
   style="font-size:12;fill:url(#linearGradient1265);fill-rule:evenodd;"
   id="rect1956"
   width="58.9256592"
   height="50.5429591"
   x="580.641349"
   y="61.4115698"
   transform="matrix(1,0,-2.825511e-2,0.999601,0,0)"
   ry="8.21930338" /><rect
   style="font-size:12;fill:url(#linearGradient1266);fill-rule:evenodd;"
   id="rect1957"
   width="58.9256592"
   height="50.5429667"
   x="643.958061"
   y="61.3485815"
   transform="matrix(1,0,-2.825511e-2,0.999601,0,0)"
   ry="9.98059629" /><rect
   style="font-size:12;fill:url(#linearGradient1259);fill-rule:evenodd;"
   id="rect1958"
   width="58.9256592"
   height="50.5430011"
   x="517.79351"
   y="115.402074"
   transform="matrix(1,0,-2.825511e-2,0.999601,0,0)"
   ry="12.3288635" /><rect
   style="font-size:12;fill:url(#linearGradient1254);fill-rule:evenodd;stroke:url(#radialGradient1255);stroke-width:1.0002;"
   id="rect1959"
   width="58.9256592"
   height="50.5430239"
   x="581.148124"
   y="115.337835"
   transform="matrix(1,0,-2.825511e-2,0.999601,0,0)"
   ry="10.5676631" /><rect
   style="font-size:12;fill:url(#linearGradient1256);fill-rule:evenodd;stroke:url(#radialGradient1262);stroke-width:1;"
   id="rect1960"
   width="58.9256592"
   height="50.5429782"
   x="644.551017"
   y="115.506567"
   transform="matrix(1,0,-2.825511e-2,0.999601,0,0)"
   ry="9.39349897" /><rect
   style="font-size:12;fill:url(#linearGradient1257);fill-rule:evenodd;"
   id="rect1961"
   width="58.9256592"
   height="50.5429934"
   x="518.229759"
   y="169.623521"
   transform="matrix(1,0,-2.825511e-2,0.999601,0,0)"
   ry="9.98047422" /><rect
   style="font-size:12;fill:url(#linearGradient1258);fill-rule:evenodd;stroke:url(#radialGradient1263);stroke-width:1;"
   id="rect1962"
   width="58.9256592"
   height="50.5429782"
   x="581.584342"
   y="169.559251"
   transform="matrix(1,0,-2.825511e-2,0.999601,0,0)"
   ry="9.98047422" /><rect
   style="font-size:12;fill:url(#linearGradient1260);fill-rule:evenodd;stroke:url(#radialGradient1264);stroke-width:1;"
   id="rect1963"
   width="58.9256592"
   height="50.5429782"
   x="644.987235"
   y="169.728074"
   transform="matrix(1,0,-2.825511e-2,0.999601,0,0)"
   ry="9.39340742" /><rect
   style="font-size:12;fill:url(#linearGradient1261);fill-rule:evenodd;"
   id="rect1964"
   width="58.9256592"
   height="50.5430239"
   x="518.002128"
   y="61.3255408"
   transform="matrix(1,0,-2.825511e-2,0.999601,0,0)"
   ry="8.80637209" /><path
   sodipodi:type="arc"
   style="fill-rule:evenodd;stroke:url(#radialGradient1911);fill:url(#linearGradient1915);fill-opacity:1;stroke-opacity:1;stroke-width:0.625;stroke-linejoin:miter;stroke-linecap:butt;stroke-dasharray:none;"
   id="path1965"
   d="M 65.72797 327.3006 A 4.401428 4.401443 0 1 0 56.92511 327.3006 A 4.401428 4.401443 0 1 0  65.72797 327.3006 z"
   sodipodi:cx="61.3265381"
   sodipodi:cy="327.300598"
   sodipodi:rx="4.40142822"
   sodipodi:ry="4.40144348"
   transform="matrix(1.266667,0,0,1.199998,559.7347,-225.115)" /><path
   sodipodi:type="arc"
   style="fill-rule:evenodd;stroke:url(#radialGradient1911);fill:url(#linearGradient1916);fill-opacity:1;stroke-opacity:1;stroke-width:0.625;stroke-linejoin:miter;stroke-linecap:butt;stroke-dasharray:none;"
   id="path1966"
   d="M 65.72797 327.3006 A 4.401428 4.401443 0 1 0 56.92511 327.3006 A 4.401428 4.401443 0 1 0  65.72797 327.3006 z"
   sodipodi:cx="61.3265381"
   sodipodi:cy="327.300598"
   sodipodi:rx="4.40142822"
   sodipodi:ry="4.40144348"
   transform="matrix(1.266667,0,0,1.199998,560.9084,-279.1062)" /><path
   sodipodi:type="arc"
   style="fill-rule:evenodd;stroke:url(#radialGradient1911);fill:url(#linearGradient1916);fill-opacity:1;stroke-opacity:1;stroke-width:0.625;stroke-linejoin:miter;stroke-linecap:butt;stroke-dasharray:none;"
   id="path1967"
   d="M 65.72797 327.3006 A 4.401428 4.401443 0 1 0 56.92511 327.3006 A 4.401428 4.401443 0 1 0  65.72797 327.3006 z"
   sodipodi:cx="61.3265381"
   sodipodi:cy="327.300598"
   sodipodi:rx="4.40142822"
   sodipodi:ry="4.40144348"
   transform="matrix(1.266667,0,0,1.199998,496.9409,-278.5193)" /><path
   sodipodi:type="arc"
   style="fill-rule:evenodd;stroke:url(#radialGradient1911);fill:url(#linearGradient1916);fill-opacity:1;stroke-opacity:1;stroke-width:0.625;stroke-linejoin:miter;stroke-linecap:butt;stroke-dasharray:none;"
   id="path1968"
   d="M 65.72797 327.3006 A 4.401428 4.401443 0 1 0 56.92511 327.3006 A 4.401428 4.401443 0 1 0  65.72797 327.3006 z"
   sodipodi:cx="61.3265381"
   sodipodi:cy="327.300598"
   sodipodi:rx="4.40142822"
   sodipodi:ry="4.40144348"
   transform="matrix(1.266667,0,0,1.199998,495.7672,-225.7019)" /><rect
   style="font-size:12;fill:url(#linearGradient1265);fill-rule:evenodd;"
   id="rect1969"
   width="69.2984192"
   height="67.6463461"
   x="-159.659037"
   y="-679.74429"
   transform="matrix(-0.999991,-4.275987e-3,2.812696e-2,-0.999604,0,0)"
   ry="11.0006588" /><rect
   style="font-size:12;fill:url(#linearGradient1266);fill-rule:evenodd;"
   id="rect1970"
   width="69.2984192"
   height="67.6463536"
   x="-85.1965842"
   y="-679.828596"
   transform="matrix(-0.999991,-4.275987e-3,2.812696e-2,-0.999604,0,0)"
   ry="13.3579615" /><rect
   style="font-size:12;fill:url(#linearGradient1259);fill-rule:evenodd;"
   id="rect1971"
   width="69.2984192"
   height="67.6464061"
   x="-233.570032"
   y="-607.483912"
   transform="matrix(-0.999991,-4.275987e-3,2.812696e-2,-0.999604,0,0)"
   ry="16.5008663" /><rect
   style="font-size:12;fill:url(#linearGradient1254);fill-rule:evenodd;stroke:url(#radialGradient1255);stroke-width:1.25484;"
   id="rect1972"
   width="69.2984192"
   height="67.6464361"
   x="-159.063052"
   y="-607.569838"
   transform="matrix(-0.999991,-4.275987e-3,2.812696e-2,-0.999604,0,0)"
   ry="14.1436865" /><rect
   style="font-size:12;fill:url(#linearGradient1256);fill-rule:evenodd;stroke:url(#radialGradient1262);stroke-width:1.254589;"
   id="rect1973"
   width="69.2984192"
   height="67.6463686"
   x="-84.4992104"
   y="-607.344063"
   transform="matrix(-0.999991,-4.275987e-3,2.812696e-2,-0.999604,0,0)"
   ry="12.5721914" /><rect
   style="font-size:12;fill:url(#linearGradient1257);fill-rule:evenodd;"
   id="rect1974"
   width="69.2984192"
   height="67.6463911"
   x="-233.056958"
   y="-534.914233"
   transform="matrix(-0.999991,-4.275987e-3,2.812696e-2,-0.999604,0,0)"
   ry="13.3577982" /><rect
   style="font-size:12;fill:url(#linearGradient1258);fill-rule:evenodd;stroke:url(#radialGradient1263);stroke-width:1.254589;"
   id="rect1975"
   width="69.2984192"
   height="67.6463686"
   x="-158.550022"
   y="-535.00022"
   transform="matrix(-0.999991,-4.275987e-3,2.812696e-2,-0.999604,0,0)"
   ry="13.3577982" /><rect
   style="font-size:12;fill:url(#linearGradient1260);fill-rule:evenodd;stroke:url(#radialGradient1264);stroke-width:1.254589;"
   id="rect1976"
   width="69.2984192"
   height="67.6463686"
   x="-83.9861949"
   y="-534.774325"
   transform="matrix(-0.999991,-4.275987e-3,2.812696e-2,-0.999604,0,0)"
   ry="12.5720695" /><rect
   style="font-size:12;fill:url(#linearGradient1261);fill-rule:evenodd;"
   id="rect1977"
   width="69.2984192"
   height="67.6464361"
   x="-233.324684"
   y="-679.85946"
   transform="matrix(-0.999991,-4.275987e-3,2.812696e-2,-0.999604,0,0)"
   ry="11.7863867" /><path
   sodipodi:type="arc"
   style="fill-rule:evenodd;stroke:url(#radialGradient1911);fill:url(#linearGradient1915);fill-opacity:1;stroke-opacity:1;stroke-width:0.625;stroke-linejoin:miter;stroke-linecap:butt;stroke-dasharray:none;"
   id="path1978"
   d="M 65.72797 327.3006 A 4.401428 4.401443 0 1 0 56.92511 327.3006 A 4.401428 4.401443 0 1 0  65.72797 327.3006 z"
   sodipodi:cx="61.3265381"
   sodipodi:cy="327.300598"
   sodipodi:rx="4.40142822"
   sodipodi:ry="4.40144348"
   transform="matrix(-1.489625,-6.369682e-3,5.301754e-3,-1.606245,161.8182,1063.748)" /><path
   sodipodi:type="arc"
   style="fill-rule:evenodd;stroke:url(#radialGradient1911);fill:url(#linearGradient1916);fill-opacity:1;stroke-opacity:1;stroke-width:0.625;stroke-linejoin:miter;stroke-linecap:butt;stroke-dasharray:none;"
   id="path1979"
   d="M 65.72797 327.3006 A 4.401428 4.401443 0 1 0 56.92511 327.3006 A 4.401428 4.401443 0 1 0  65.72797 327.3006 z"
   sodipodi:cx="61.3265381"
   sodipodi:cy="327.300598"
   sodipodi:rx="4.40142822"
   sodipodi:ry="4.40144348"
   transform="matrix(-1.489625,-6.369682e-3,5.301754e-3,-1.606245,160.1997,1136.013)" /><path
   sodipodi:type="arc"
   style="fill-rule:evenodd;stroke:url(#radialGradient1911);fill:url(#linearGradient1989);fill-opacity:1;stroke-opacity:1;stroke-width:0.625;stroke-linejoin:miter;stroke-linecap:butt;stroke-dasharray:none;"
   id="path1980"
   d="M 65.72797 327.3006 A 4.401428 4.401443 0 1 0 56.92511 327.3006 A 4.401428 4.401443 0 1 0  65.72797 327.3006 z"
   sodipodi:cx="61.3265381"
   sodipodi:cy="327.300598"
   sodipodi:rx="4.40142822"
   sodipodi:ry="4.40144348"
   transform="matrix(-1.489625,-6.369682e-3,5.301754e-3,-1.606245,235.4291,1135.547)" /><path
   sodipodi:type="arc"
   style="fill-rule:evenodd;stroke:url(#radialGradient1911);fill:url(#linearGradient1990);fill-opacity:1;stroke-opacity:1;stroke-width:0.625;stroke-linejoin:miter;stroke-linecap:butt;stroke-dasharray:none;"
   id="path1981"
   d="M 65.72797 327.3006 A 4.401428 4.401443 0 1 0 56.92511 327.3006 A 4.401428 4.401443 0 1 0  65.72797 327.3006 z"
   sodipodi:cx="61.3265381"
   sodipodi:cy="327.300598"
   sodipodi:rx="4.40142822"
   sodipodi:ry="4.40144348"
   transform="matrix(-1.489625,-6.369682e-3,5.301754e-3,-1.606245,237.0429,1064.855)" /></svg>
