<?xml version="1.0" encoding="UTF-8" standalone="no"?>
<!DOCTYPE svg PUBLIC "-//W3C//DTD SVG 1.0//EN"
"http://www.w3.org/TR/2001/REC-SVG-20010904/DTD/svg10.dtd">
<!-- Created with Sodipodi ("http://www.sodipodi.com/") -->
<svg
   id="svg719"
   sodipodi:version="0.34"
   xmlns="http://www.w3.org/2000/svg"
   xmlns:sodipodi="http://sodipodi.sourceforge.net/DTD/sodipodi-0.dtd"
   xmlns:xlink="http://www.w3.org/1999/xlink"
   width="210mm"
   height="297mm"
   xml:space="preserve"
   sodipodi:docbase="/home/rams/MyImages"
   sodipodi:docname="/home/rams/MyImages/img_spiral2"><defs
   id="defs721"><linearGradient
   id="linearGradient724"><stop
   style="stop-color:#000;stop-opacity:1;"
   offset="0"
   id="stop725" /><stop
   style="stop-color:#fff;stop-opacity:1;"
   offset="1"
   id="stop726" /></linearGradient><linearGradient
   xlink:href="#linearGradient724"
   id="linearGradient727" /><radialGradient
   xlink:href="#linearGradient724"
   id="radialGradient728"
   cx="0.47876447"
   cy="-5.74990129"
   r="6.88132763"
   fx="0.47876447"
   fy="-5.74990129"
   gradientTransform="translate(-6.472078e-9,1.212374e-6)" /><radialGradient
   xlink:href="#linearGradient724"
   id="radialGradient729"
   cx="0.5"
   cy="0.50000006"
   r="0.5"
   fx="0.5"
   fy="0.50000006" /></defs><sodipodi:namedview
   id="base" /><path
   sodipodi:type="spiral"
   style="font-size:12;fill:none;fill-rule:evenodd;stroke:#000000;stroke-width:0.1875;fill-opacity:1;stroke-opacity:1;stroke-dasharray:none;stroke-linejoin:bevel;stroke-linecap:square;"
   id="path672"
   sodipodi:cx="242.958099"
   sodipodi:cy="472.549103"
   sodipodi:expansion="1"
   sodipodi:revolution="3"
   sodipodi:radius="263.091858"
   sodipodi:argument="-18.3160229"
   sodipodi:t0="0"
   d="M 242.9581 472.5491 C 251.7792 480.8985 241.6643 491.1728 231.8079 491.4263 C 210.9904 491.9617 201.1028 467.7444 205.2037 450.2486 C 212.462 419.2827 248.2453 406.3384 276.4088 415.9175 C 317.4803 429.887 333.8139 478.5375 318.4668 517.1501 C 298.1026 568.3857 236.1982 588.17 187.2069 566.935 C 125.7694 540.3053 102.5107 464.9855 129.695 405.6477 C 162.5255 333.9853 251.3434 307.2397 321.0098 340.4088 C 402.9119 379.4035 433.1517 481.7672 393.9756 561.751 C 348.8396 653.9026 232.8998 687.6418 142.6059 642.4437 C 40.19801 591.1818 2.955845 461.6453 54.18627 361.0467 C 111.5637 248.3774 254.7112 207.6297 365.6107 264.9001 C 488.545 328.3854 532.8003 485.1544 469.4843 606.352 "
   transform="translate(78.63862,95.07054)" /><rect
   style="font-size:12;fill:url(#radialGradient728);fill-rule:evenodd;"
   id="rect730"
   width="340.274943"
   height="9.95925903"
   x="167.647676"
   y="401.689972"
   ry="4.97962952"
   rx="14.0161612" /><rect
   style="font-size:12;fill:url(#radialGradient728);fill-rule:evenodd;"
   id="rect734"
   width="400.030593"
   height="9.95925903"
   x="138.04245"
   y="442.182922"
   ry="4.97962952"
   rx="7.11228433" /><rect
   style="font-size:12;fill:url(#radialGradient728);fill-rule:evenodd;"
   id="rect735"
   width="440.69754"
   height="9.95925903"
   x="118.681252"
   y="484.436462"
   ry="4.97962952"
   rx="4.45864105" /><rect
   style="font-size:12;fill:url(#radialGradient728);fill-rule:evenodd;"
   id="rect736"
   width="461.446114"
   height="9.95925903"
   x="110.381885"
   y="526.690094"
   ry="4.97962952"
   rx="6.48369083" /><rect
   style="font-size:12;fill:url(#radialGradient728);fill-rule:evenodd;"
   id="rect737"
   width="468.085632"
   height="9.95925903"
   x="110.239449"
   y="567.183167"
   ry="4.97962952"
   rx="5.19622803" /><rect
   style="font-size:12;fill:url(#radialGradient728);fill-rule:evenodd;"
   id="rect738"
   width="456.608856"
   height="9.95925903"
   x="119.368763"
   y="609.436615"
   ry="4.97962952"
   rx="8.29866829" /><rect
   style="font-size:12;fill:url(#radialGradient728);fill-rule:evenodd;"
   id="rect739"
   width="430.73836"
   height="9.95925903"
   x="136.210662"
   y="651.690338"
   ry="4.97962952"
   rx="17.7424118" /><rect
   style="font-size:12;fill:url(#radialGradient728);fill-rule:evenodd;"
   id="rect740"
   width="385.091705"
   height="9.95925903"
   x="165.946091"
   y="692.183289"
   ry="4.97962952"
   rx="17.6227875" /><rect
   style="font-size:12;fill:url(#radialGradient728);fill-rule:evenodd;"
   id="rect741"
   width="157.688324"
   height="9.95925903"
   x="225.844101"
   y="734.436829"
   ry="4.97961426"
   rx="26.4483795" /><rect
   style="font-size:12;fill:url(#radialGradient728);fill-rule:evenodd;"
   id="rect742"
   width="224.421338"
   height="9.95925903"
   x="224.228864"
   y="359.436218"
   ry="4.97962952"
   rx="9.2440712" /></svg>
