<?xml version="1.0" encoding="UTF-8" standalone="no"?>
<!DOCTYPE svg PUBLIC "-//W3C//DTD SVG 1.0//EN"
"http://www.w3.org/TR/2001/REC-SVG-20010904/DTD/svg10.dtd">
<!-- Created with Sodipodi ("http://www.sodipodi.com/") -->
<svg
   id="svg669"
   sodipodi:version="0.34"
   xmlns="http://www.w3.org/2000/svg"
   xmlns:sodipodi="http://sodipodi.sourceforge.net/DTD/sodipodi-0.dtd"
   xmlns:xlink="http://www.w3.org/1999/xlink"
   width="210mm"
   height="297mm"
   xml:space="preserve"
   sodipodi:docbase="/home/rams/MyImages"
   sodipodi:docname="/home/rams/MyImages/img_spiral1"><defs
   id="defs671"><linearGradient
   id="linearGradient771"><stop
   style="stop-color:#000;stop-opacity:1;"
   offset="0"
   id="stop772" /><stop
   style="stop-color:#fff;stop-opacity:1;"
   offset="1"
   id="stop773" /></linearGradient><linearGradient
   id="linearGradient683"><stop
   style="stop-color:#000;stop-opacity:1;"
   offset="0"
   id="stop684" /><stop
   style="stop-color:#fff;stop-opacity:1;"
   offset="1"
   id="stop685" /></linearGradient><linearGradient
   xlink:href="#linearGradient683"
   id="linearGradient686" /><linearGradient
   xlink:href="#linearGradient683"
   id="linearGradient687"
   x1="0.54439729"
   y1="-2.83317995"
   x2="0.54826242"
   y2="0.77778316"
   gradientTransform="translate(-4.492874e-8,2.225134e-6)" /><radialGradient
   xlink:href="#linearGradient683"
   id="radialGradient688"
   cx="0.72447658"
   cy="-7.74303973e-2"
   r="1.07386863"
   fx="0.72447658"
   fy="-7.74303973e-2"
   gradientTransform="matrix(1,-1.156977e-8,2.099016e-5,1,-8.397258e-8,1.705692e-7)" /><radialGradient
   xlink:href="#linearGradient683"
   id="radialGradient694"
   cx="0.67933881"
   cy="-9.47782993e-2"
   r="1.05064845"
   fx="0.67933881"
   fy="-9.47782993e-2" /><radialGradient
   xlink:href="#linearGradient683"
   id="radialGradient695"
   cx="-1.22336776e-3"
   cy="0.73895472"
   r="1.26193893"
   fx="-1.22336776e-3"
   fy="0.73895472" /><radialGradient
   xlink:href="#linearGradient683"
   id="radialGradient696"
   cx="0.2023896"
   cy="0.44667947"
   r="0.77097428"
   fx="0.2023896"
   fy="0.44667947" /><radialGradient
   xlink:href="#linearGradient683"
   id="radialGradient697"
   cx="0.40418795"
   cy="5.12176417e-2"
   r="0.81769824"
   fx="0.40418795"
   fy="5.12176417e-2"
   gradientTransform="matrix(1,1.32463e-6,-1.579767e-9,1,1.089404e-7,1.063519e-7)" /><radialGradient
   xlink:href="#linearGradient683"
   id="radialGradient698"
   cx="0.25662756"
   cy="-8.44941288e-2"
   r="0.91636783"
   fx="0.25662756"
   fy="-8.44941288e-2" /><radialGradient
   xlink:href="#linearGradient683"
   id="radialGradient699"
   cx="1.41782534"
   cy="0.62494284"
   r="1.29979444"
   fx="1.41782534"
   fy="0.62494284"
   gradientTransform="matrix(1.000005,-5.740987e-6,1.948875e-5,0.999995,-5.494503e-7,-1.204113e-7)" /><radialGradient
   xlink:href="#linearGradient683"
   id="radialGradient700"
   cx="0.71087337"
   cy="-1.00084305"
   r="2.12955737"
   fx="0.71087337"
   fy="-1.00084305" /><radialGradient
   xlink:href="#linearGradient683"
   id="radialGradient701"
   cx="-5.78174032e-2"
   cy="0.11814206"
   r="1.04616129"
   fx="-5.78174032e-2"
   fy="0.11814206" /><radialGradient
   xlink:href="#linearGradient771"
   id="radialGradient702"
   cx="0.49999994"
   cy="0.50000221"
   r="0.5"
   fx="0.49999994"
   fy="0.50000221"
   gradientTransform="translate(-4.492874e-8,2.225134e-6)" /><radialGradient
   xlink:href="#linearGradient771"
   id="radialGradient733"
   cx="0.56302363"
   cy="3.0348444"
   r="0.3199541"
   fx="0.56302363"
   fy="3.0348444"
   gradientTransform="matrix(0.639908,0,0,1.562724,-2.561024e-8,-1.38893e-6)" /><linearGradient
   xlink:href="#linearGradient683"
   id="linearGradient754"
   x1="0.85677403"
   y1="-4.799366"
   x2="0.85678279"
   y2="0.39994162"
   gradientTransform="matrix(0.639908,0,0,1.562724,-2.561024e-8,-1.38893e-6)" /><linearGradient
   xlink:href="#linearGradient683"
   id="linearGradient755"
   x1="0.8933807"
   y1="-5.84885979"
   x2="0.88699943"
   y2="0.50420916"
   gradientTransform="matrix(0.605051,0,0,1.652754,-9.660397e-10,-1.08197e-6)" /><linearGradient
   xlink:href="#linearGradient683"
   id="linearGradient756"
   x1="0.75556475"
   y1="-5.68076038"
   x2="0.78841549"
   y2="0.48971668"
   gradientTransform="scale(0.58766,1.701664)" /><linearGradient
   xlink:href="#linearGradient683"
   id="linearGradient757"
   x1="0.81821656"
   y1="-5.8041296"
   x2="0.83817303"
   y2="0.48367614"
   gradientTransform="scale(0.580413,1.722911)" /><linearGradient
   xlink:href="#linearGradient683"
   id="linearGradient758"
   x1="0.86523145"
   y1="-5.74830818"
   x2="0.86523145"
   y2="0.48714399"
   gradientTransform="scale(0.584574,1.710648)" /><linearGradient
   xlink:href="#linearGradient683"
   id="linearGradient759"
   x1="0.78746516"
   y1="-6.08163404"
   x2="0.80037439"
   y2="0.39877883"
   gradientTransform="matrix(0.598176,0,0,1.67175,1.156929e-8,-1.614872e-6)" /><linearGradient
   xlink:href="#linearGradient683"
   id="linearGradient760"
   x1="0.71950364"
   y1="-4.55184507"
   x2="0.76870143"
   y2="0.54936504"
   gradientTransform="scale(0.627845,1.59275)" /><linearGradient
   xlink:href="#linearGradient771"
   id="linearGradient761"
   x1="0.61260474"
   y1="-3.49291611"
   x2="0.60800493"
   y2="0.62866807"
   gradientTransform="matrix(0.838237,0,0,1.19298,-4.287424e-8,-1.676001e-6)" /><linearGradient
   xlink:href="#linearGradient771"
   id="linearGradient762"
   x1="0.77702808"
   y1="-5.02073717"
   x2="0.7883715"
   y2="0.42546177"
   gradientTransform="matrix(0.680744,0,0,1.46898,-3.099686e-9,-1.851868e-6)" /><radialGradient
   xlink:href="#linearGradient771"
   id="radialGradient763"
   cx="0.64645296"
   cy="5.32960463"
   r="0.3025271"
   fx="0.64645296"
   fy="5.32960463"
   gradientTransform="matrix(0.605051,0,0,1.652754,-9.660397e-10,-1.08197e-6)" /><radialGradient
   xlink:href="#linearGradient771"
   id="radialGradient764"
   cx="0.69063801"
   cy="7.66966677"
   r="0.29383188"
   fx="0.69063801"
   fy="7.66966677"
   gradientTransform="scale(0.58766,1.701664)" /><radialGradient
   xlink:href="#linearGradient771"
   id="radialGradient765"
   cx="0.71571958"
   cy="10.0375061"
   r="0.29020646"
   fx="0.71571958"
   fy="10.0375061"
   gradientTransform="scale(0.580413,1.722911)" /><radialGradient
   xlink:href="#linearGradient771"
   id="radialGradient766"
   cx="0.72032219"
   cy="12.4862547"
   r="0.29228684"
   fx="0.72032219"
   fy="12.4862547"
   gradientTransform="scale(0.584574,1.710648)" /><radialGradient
   xlink:href="#linearGradient771"
   id="radialGradient767"
   cx="0.70560217"
   cy="15.3146772"
   r="0.29908878"
   fx="0.70560217"
   fy="15.3146772"
   gradientTransform="matrix(0.598176,0,0,1.67175,1.156929e-8,-1.614872e-6)" /><radialGradient
   xlink:href="#linearGradient771"
   id="radialGradient768"
   cx="0.66351181"
   cy="18.7380047"
   r="0.31392351"
   fx="0.66351181"
   fy="18.7380047"
   gradientTransform="scale(0.627845,1.59275)" /><radialGradient
   xlink:href="#linearGradient771"
   id="radialGradient769"
   cx="0.59160948"
   cy="23.084589"
   r="0.34037328"
   fx="0.59160948"
   fy="23.084589"
   gradientTransform="matrix(0.680744,0,0,1.46898,-3.099686e-9,-1.851868e-6)" /><radialGradient
   xlink:href="#linearGradient771"
   id="radialGradient770"
   cx="0.42770618"
   cy="31.981657"
   r="0.41911995"
   fx="0.42770618"
   fy="31.981657"
   gradientTransform="matrix(0.838237,0,0,1.19298,-4.287424e-8,-1.676001e-6)" /><linearGradient
   xlink:href="#linearGradient771"
   id="linearGradient774"
   x1="-4.49287398e-8"
   y1="2.22513381e-6"
   x2="0.99999994"
   y2="2.22513381e-6"
   gradientTransform="translate(-4.492874e-8,2.225134e-6)" /><linearGradient
   xlink:href="#linearGradient771"
   id="linearGradient775"
   x1="0.24306951"
   y1="2.71489024"
   x2="0.88297766"
   y2="2.71489024"
   gradientTransform="matrix(0.639908,0,0,1.562724,-2.561024e-8,-1.38893e-6)" /><linearGradient
   xlink:href="#linearGradient771"
   id="linearGradient776"
   x1="0.34392586"
   y1="5.02707767"
   x2="0.94898009"
   y2="5.02707767"
   gradientTransform="matrix(0.605051,0,0,1.652754,-9.660397e-10,-1.08197e-6)" /><linearGradient
   xlink:href="#linearGradient771"
   id="linearGradient777"
   x1="0.39680615"
   y1="7.37583494"
   x2="0.98446989"
   y2="7.37583494"
   gradientTransform="scale(0.58766,1.701664)" /><linearGradient
   xlink:href="#linearGradient771"
   id="linearGradient778"
   x1="0.42551315"
   y1="9.74730015"
   x2="1.00592613"
   y2="9.74730015"
   gradientTransform="scale(0.580413,1.722911)" /><linearGradient
   xlink:href="#linearGradient771"
   id="linearGradient779"
   x1="0.42803535"
   y1="12.1939678"
   x2="1.012609"
   y2="12.1939678"
   gradientTransform="scale(0.584574,1.710648)" /><linearGradient
   xlink:href="#linearGradient771"
   id="linearGradient780"
   x1="0.40651342"
   y1="15.0155888"
   x2="1.00469089"
   y2="15.0155888"
   gradientTransform="matrix(0.598176,0,0,1.67175,1.156929e-8,-1.614872e-6)" /><linearGradient
   xlink:href="#linearGradient771"
   id="linearGradient781"
   x1="0.34958833"
   y1="18.4240799"
   x2="0.97743529"
   y2="18.4240799"
   gradientTransform="scale(0.627845,1.59275)" /><linearGradient
   xlink:href="#linearGradient771"
   id="linearGradient782"
   x1="0.25123623"
   y1="22.744215"
   x2="0.93198282"
   y2="22.744215"
   gradientTransform="matrix(0.680744,0,0,1.46898,-3.099686e-9,-1.851868e-6)" /><linearGradient
   xlink:href="#linearGradient771"
   id="linearGradient783"
   x1="8.58621579e-3"
   y1="31.5625381"
   x2="0.84682614"
   y2="31.5625381"
   gradientTransform="matrix(0.838237,0,0,1.19298,-4.287424e-8,-1.676001e-6)" /></defs><sodipodi:namedview
   id="base" /><rect
   style="font-size:12;fill:url(#linearGradient761);fill-rule:evenodd;stroke:#000000;stroke-width:0;"
   id="rect786"
   width="270.89809"
   height="9.95925524"
   x="421.868896"
   y="-528.61562"
   ry="4.97962762"
   rx="11.1584802"
   transform="matrix(-1.125004e-3,0.999999,-0.999999,-1.125004e-3,0,0)" /><rect
   style="font-size:12;fill:url(#linearGradient762);fill-rule:evenodd;stroke:#000000;stroke-width:0;"
   id="rect787"
   width="295.457571"
   height="9.95924533"
   x="378.675854"
   y="-486.469296"
   ry="4.97962266"
   rx="12.1701035"
   transform="matrix(-1.409418e-3,0.999999,-1,-8.979841e-4,0,0)" /><rect
   style="font-size:12;fill:url(#linearGradient760);fill-rule:evenodd;stroke:#000000;stroke-width:0;"
   id="rect788"
   width="368.492444"
   height="9.95924996"
   x="349.853116"
   y="-445.924641"
   ry="4.97962498"
   rx="6.55155639"
   transform="matrix(-1.284634e-3,0.999999,-1,-9.852102e-4,0,0)" /><rect
   style="font-size:12;fill:url(#linearGradient759);fill-rule:evenodd;stroke:#000000;stroke-width:0;"
   id="rect789"
   width="424.098328"
   height="9.95925043"
   x="331.297202"
   y="-403.648824"
   ry="4.97962522"
   rx="4.29070297"
   transform="matrix(-1.226277e-3,0.999999,-0.999999,-1.032095e-3,0,0)" /><rect
   style="font-size:12;fill:url(#linearGradient758);fill-rule:evenodd;stroke:#000000;stroke-width:0;"
   id="rect790"
   width="447.336641"
   height="9.95925051"
   x="319.671317"
   y="-361.39101"
   ry="4.97962526"
   rx="6.28544167"
   transform="matrix(-1.216842e-3,0.999999,-0.999999,-1.040098e-3,0,0)" /><rect
   style="font-size:12;fill:url(#linearGradient757);fill-rule:evenodd;stroke:#000000;stroke-width:0;"
   id="rect791"
   width="455.636061"
   height="9.95924564"
   x="315.378942"
   y="-320.901441"
   ry="4.97962282"
   rx="5.05802518"
   transform="matrix(-1.229514e-3,0.999999,-0.999999,-1.029379e-3,0,0)" /><rect
   style="font-size:12;fill:url(#linearGradient756);fill-rule:evenodd;stroke:#000000;stroke-width:0;"
   id="rect792"
   width="432.540145"
   height="9.95925027"
   x="332.807444"
   y="-278.6554"
   ry="4.97962513"
   rx="7.86123025"
   transform="matrix(-1.245887e-3,0.999999,-0.999999,-1.01585e-3,0,0)" /><rect
   style="font-size:12;fill:url(#linearGradient755);fill-rule:evenodd;stroke:#000000;stroke-width:0;"
   id="rect793"
   width="405.839779"
   height="9.9592503"
   x="352.133967"
   y="-236.40299"
   ry="4.97962515"
   rx="16.7168221"
   transform="matrix(-1.242337e-3,0.999999,-0.999999,-1.018753e-3,0,0)" /><rect
   style="font-size:12;fill:url(#linearGradient754);fill-rule:evenodd;stroke:#000000;stroke-width:0;"
   id="rect794"
   width="338.614632"
   height="9.95924948"
   x="380.221209"
   y="-195.955735"
   ry="4.97962474"
   rx="15.4958747"
   transform="matrix(-1.353867e-3,0.999999,-1,-9.348296e-4,0,0)" /><rect
   style="font-size:12;fill:url(#linearGradient687);fill-rule:evenodd;stroke:#000000;stroke-width:0;"
   id="rect795"
   width="173.457179"
   height="9.95925524"
   x="440.083001"
   y="-153.615261"
   ry="4.97961236"
   rx="29.093222"
   transform="matrix(-1.125004e-3,0.999999,-0.999999,-1.125004e-3,0,0)" /><rect
   style="font-size:12;fill:url(#linearGradient687);fill-rule:evenodd;stroke:#000000;stroke-width:0;"
   id="rect796"
   width="168.477479"
   height="9.95925433"
   x="463.294249"
   y="-120.327619"
   ry="4.97961191"
   rx="28.2579971"
   transform="matrix(-9.310369e-4,1,-0.999999,-1.359382e-3,0,0)" /><rect
   style="font-size:12;fill:url(#linearGradient687);fill-rule:evenodd;stroke:#000000;stroke-width:0;"
   id="rect797"
   width="175.117029"
   height="9.95925524"
   x="468.301131"
   y="-569.416876"
   ry="4.97961236"
   rx="29.3716224"
   transform="matrix(-1.125004e-3,0.999999,-0.999999,-1.125004e-3,0,0)" /><rect
   style="font-size:12;fill:url(#linearGradient761);fill-rule:evenodd;stroke:#000000;stroke-width:0;"
   id="rect742"
   width="270.898184"
   height="9.95925903"
   x="198.500586"
   y="359.436157"
   ry="4.97962952"
   rx="11.1584846" /><rect
   style="font-size:12;fill:url(#linearGradient762);fill-rule:evenodd;stroke:#000000;stroke-width:0;"
   id="rect730"
   width="370.152899"
   height="9.95925903"
   x="155.198517"
   y="401.689911"
   ry="4.97962952"
   rx="15.2468544" /><rect
   style="font-size:12;fill:url(#linearGradient760);fill-rule:evenodd;stroke:#000000;stroke-width:0;"
   id="rect734"
   width="420.779184"
   height="9.95925903"
   x="126.423244"
   y="442.182861"
   ry="4.97962952"
   rx="7.48118069" /><rect
   style="font-size:12;fill:url(#linearGradient759);fill-rule:evenodd;stroke:#000000;stroke-width:0;"
   id="rect735"
   width="479.704882"
   height="9.95925903"
   x="97.932664"
   y="484.43634"
   ry="4.97962952"
   rx="4.85328742" /><rect
   style="font-size:12;fill:url(#linearGradient758);fill-rule:evenodd;stroke:#000000;stroke-width:0;"
   id="rect736"
   width="483.854522"
   height="9.95925903"
   x="96.2728347"
   y="526.690094"
   ry="4.97962952"
   rx="6.79854704" /><rect
   style="font-size:12;fill:url(#linearGradient757);fill-rule:evenodd;stroke:#000000;stroke-width:0;"
   id="rect737"
   width="492.983962"
   height="9.95925903"
   x="96.9603689"
   y="567.183136"
   ry="4.97962952"
   rx="5.47262486" /><rect
   style="font-size:12;fill:url(#linearGradient756);fill-rule:evenodd;stroke:#000000;stroke-width:0;"
   id="rect738"
   width="488.976686"
   height="9.95925903"
   x="99.45013"
   y="609.436615"
   ry="4.97962952"
   rx="8.88693943" /><rect
   style="font-size:12;fill:url(#linearGradient755);fill-rule:evenodd;stroke:#000000;stroke-width:0;"
   id="rect739"
   width="448.16724"
   height="9.95925903"
   x="128.741179"
   y="651.690216"
   ry="4.97962952"
   rx="18.4603197" /><rect
   style="font-size:12;fill:url(#linearGradient754);fill-rule:evenodd;stroke:#000000;stroke-width:0;"
   id="rect740"
   width="303.757295"
   height="9.95925903"
   x="156.81675"
   y="692.183136"
   ry="4.97962952"
   rx="13.9007139" /><rect
   style="font-size:12;fill:url(#linearGradient687);fill-rule:evenodd;stroke:#000000;stroke-width:0;"
   id="rect741"
   width="195.865747"
   height="9.95925903"
   x="216.71474"
   y="734.436676"
   ry="4.97961426"
   rx="32.8517141" /><polygon
   sodipodi:type="star"
   style="font-size:12;fill:url(#linearGradient686);fill-rule:evenodd;stroke-width:9.9124;fill-opacity:1;stroke:#000000;stroke-opacity:1;stroke-dasharray:none;"
   id="polygon676"
   sodipodi:sides="3"
   sodipodi:cx="70.4226379"
   sodipodi:cy="283.581665"
   sodipodi:r1="92.9086533"
   sodipodi:r2="46.4543266"
   sodipodi:arg1="1.11279821"
   sodipodi:arg2="2.15999579"
   points="111.5025,366.9151 44.60817,322.2031 -22.28617,277.4912 49.8827,241.9149 122.0516,206.3387 116.777,286.6269 111.5025,366.9151 "
   transform="matrix(-5.021118e-2,-2.344392e-2,7.236029e-2,-0.108387,300.9312,611.3018)" /><polygon
   sodipodi:type="star"
   style="font-size:12;fill:url(#radialGradient701);fill-rule:evenodd;stroke-width:0.9962;fill-opacity:1;stroke:#000000;stroke-opacity:1;stroke-dasharray:none;"
   id="polygon677"
   sodipodi:sides="3"
   sodipodi:cx="261.150726"
   sodipodi:cy="491.915131"
   sodipodi:r1="26.5077209"
   sodipodi:r2="13.2538605"
   sodipodi:arg1="1.1120981"
   sodipodi:arg2="2.1592958"
   points="272.8878,515.6827 253.7933,502.9394 234.6988,490.196 255.2822,480.0313 275.8655,469.8667 274.3767,492.7747 272.8878,515.6827 "
   transform="matrix(0.789052,0.207487,-0.357616,1.669153,278.4453,-331.8125)" /><polygon
   sodipodi:type="star"
   style="font-size:12;fill:url(#radialGradient700);fill-rule:evenodd;stroke-width:1.6571;fill-opacity:1;stroke:#000000;stroke-opacity:1;stroke-dasharray:none;"
   id="polygon679"
   sodipodi:sides="3"
   sodipodi:cx="266.138977"
   sodipodi:cy="618.675903"
   sodipodi:r1="57.864109"
   sodipodi:r2="28.9320545"
   sodipodi:arg1="0.64147305"
   sodipodi:arg2="1.68867064"
   points="312.5006,653.3004 262.7365,647.4072 212.9725,641.514 242.9582,601.3636 272.9439,561.2133 292.7222,607.2569 312.5006,653.3004 "
   transform="matrix(0.766884,0.701635,-0.104439,0.268001,231.0797,188.5257)" /><polygon
   sodipodi:type="star"
   style="font-size:12;fill:url(#radialGradient699);fill-rule:evenodd;stroke-width:0.9942;fill-opacity:1;stroke:#000000;stroke-opacity:1;stroke-dasharray:none;stroke-linejoin:miter;stroke-dashoffset:0;"
   id="polygon680"
   sodipodi:sides="3"
   sodipodi:cx="401.275696"
   sodipodi:cy="580.956604"
   sodipodi:r1="56.5593224"
   sodipodi:r2="28.2796612"
   sodipodi:arg1="3.07551241"
   sodipodi:arg2="4.12270975"
   points="344.8398,584.6913 385.5495,557.4528 426.2592,530.2144 429.4936,579.0892 432.728,627.9642 388.7839,606.3278 344.8398,584.6913 "
   transform="matrix(0.6206,0.579005,-0.524536,0.758737,416.134,-68.47972)" /><polygon
   sodipodi:type="star"
   style="font-size:12;fill:url(#radialGradient696);fill-rule:evenodd;stroke-width:0.9037;fill-opacity:1;stroke:#000000;stroke-opacity:1;stroke-dasharray:none;stroke-dashoffset:0;"
   id="polygon682"
   sodipodi:sides="3"
   sodipodi:cx="235.287949"
   sodipodi:cy="614.568848"
   sodipodi:r1="55.8670807"
   sodipodi:r2="27.9335403"
   sodipodi:arg1="1.66750824"
   sodipodi:arg2="2.71470571"
   points="229.8934,670.1749 209.8612,626.1344 189.829,582.094 237.9852,586.7659 286.1415,591.4377 258.0174,630.8063 229.8934,670.1749 "
   transform="matrix(0.417779,-0.771302,1.000143,0.397374,-409.8008,569.0251)" /><polygon
   sodipodi:type="star"
   style="font-size:12;fill:url(#radialGradient695);fill-rule:evenodd;stroke-width:0.9774;fill-opacity:1;stroke:#000000;stroke-opacity:1;stroke-dasharray:none;"
   id="polygon689"
   sodipodi:sides="3"
   sodipodi:cx="235.287949"
   sodipodi:cy="614.568848"
   sodipodi:r1="55.8670807"
   sodipodi:r2="27.9335403"
   sodipodi:arg1="1.66750824"
   sodipodi:arg2="2.71470571"
   points="229.8934,670.1749 209.8612,626.1344 189.829,582.094 237.9852,586.7659 286.1415,591.4377 258.0174,630.8063 229.8934,670.1749 "
   transform="matrix(0.894815,4.272623e-2,0.208999,1.145496,-93.664,-123.5908)" /><polygon
   sodipodi:type="star"
   style="font-size:12;fill:url(#radialGradient694);fill-rule:evenodd;stroke-width:0.9774;fill-opacity:1;stroke:#000000;stroke-opacity:1;stroke-dasharray:none;"
   id="polygon690"
   sodipodi:sides="3"
   sodipodi:cx="235.287949"
   sodipodi:cy="614.568848"
   sodipodi:r1="55.8670807"
   sodipodi:r2="27.9335403"
   sodipodi:arg1="1.66750824"
   sodipodi:arg2="2.71470571"
   points="229.8934,670.1749 209.8612,626.1344 189.829,582.094 237.9852,586.7659 286.1415,591.4377 258.0174,630.8063 229.8934,670.1749 "
   transform="matrix(0.175811,-0.774283,0.915495,0.343081,-368.7914,497.9007)" /><polygon
   sodipodi:type="star"
   style="font-size:12;fill:url(#radialGradient688);fill-rule:evenodd;stroke-width:0.9774;fill-opacity:1;stroke:#000000;stroke-opacity:1;stroke-dasharray:none;"
   id="polygon691"
   sodipodi:sides="3"
   sodipodi:cx="235.287949"
   sodipodi:cy="614.568848"
   sodipodi:r1="55.8670807"
   sodipodi:r2="27.9335403"
   sodipodi:arg1="1.66750824"
   sodipodi:arg2="2.71470571"
   points="229.8934,670.1749 209.8612,626.1344 189.829,582.094 237.9852,586.7659 286.1415,591.4377 258.0174,630.8063 229.8934,670.1749 "
   transform="matrix(0.564465,-0.558393,0.587551,0.781421,-226.0425,129.2836)" /><polygon
   sodipodi:type="star"
   style="font-size:12;fill:url(#radialGradient697);fill-rule:evenodd;stroke-width:0.9774;fill-opacity:1;stroke:#000000;stroke-opacity:1;stroke-dasharray:none;"
   id="polygon692"
   sodipodi:sides="3"
   sodipodi:cx="235.287949"
   sodipodi:cy="614.568848"
   sodipodi:r1="55.8670807"
   sodipodi:r2="27.9335403"
   sodipodi:arg1="1.66750824"
   sodipodi:arg2="2.71470571"
   points="229.8934,670.1749 209.8612,626.1344 189.829,582.094 237.9852,586.7659 286.1415,591.4377 258.0174,630.8063 229.8934,670.1749 "
   transform="matrix(0.822107,-0.15166,9.149902e-2,0.974043,74.08112,-107.4265)" /><polygon
   sodipodi:type="star"
   style="font-size:12;fill:url(#radialGradient698);fill-rule:evenodd;stroke-width:0.9774;fill-opacity:1;stroke:#000000;stroke-opacity:1;stroke-dasharray:none;"
   id="polygon693"
   sodipodi:sides="3"
   sodipodi:cx="235.287949"
   sodipodi:cy="614.568848"
   sodipodi:r1="55.8670807"
   sodipodi:r2="27.9335403"
   sodipodi:arg1="1.66750824"
   sodipodi:arg2="2.71470571"
   points="229.8934,670.1749 209.8612,626.1344 189.829,582.094 237.9852,586.7659 286.1415,591.4377 258.0174,630.8063 229.8934,670.1749 "
   transform="matrix(0.791369,0.269437,-0.396174,0.894527,444.5668,-146.4704)" /><polygon
   sodipodi:type="star"
   style="font-size:12;fill:url(#radialGradient698);fill-rule:evenodd;stroke-width:0.9774;fill-opacity:1;stroke:#000000;stroke-opacity:1;stroke-dasharray:none;"
   id="polygon703"
   sodipodi:sides="3"
   sodipodi:cx="235.287949"
   sodipodi:cy="614.568848"
   sodipodi:r1="55.8670807"
   sodipodi:r2="27.9335403"
   sodipodi:arg1="1.66750824"
   sodipodi:arg2="2.71470571"
   points="229.8934,670.1749 209.8612,626.1344 189.829,582.094 237.9852,586.7659 286.1415,591.4377 258.0174,630.8063 229.8934,670.1749 "
   transform="matrix(0.533395,0.726877,-0.758377,0.641014,777.472,-51.27704)" /><polygon
   sodipodi:type="star"
   style="font-size:12;fill:url(#radialGradient698);fill-rule:evenodd;stroke-width:0.9774;fill-opacity:1;stroke:#000000;stroke-opacity:1;stroke-dasharray:none;"
   id="polygon704"
   sodipodi:sides="3"
   sodipodi:cx="235.287949"
   sodipodi:cy="614.568848"
   sodipodi:r1="55.8670807"
   sodipodi:r2="27.9335403"
   sodipodi:arg1="1.66750824"
   sodipodi:arg2="2.71470571"
   points="229.8934,670.1749 209.8612,626.1344 189.829,582.094 237.9852,586.7659 286.1415,591.4377 258.0174,630.8063 229.8934,670.1749 "
   transform="matrix(0.109161,0.894955,-0.975116,0.187572,1028.746,257.627)" /><polygon
   sodipodi:type="star"
   style="font-size:12;fill:url(#radialGradient698);fill-rule:evenodd;stroke-width:0.9774;fill-opacity:1;stroke:#000000;stroke-opacity:1;stroke-dasharray:none;"
   id="polygon706"
   sodipodi:sides="3"
   sodipodi:cx="235.287949"
   sodipodi:cy="614.568848"
   sodipodi:r1="55.8670807"
   sodipodi:r2="27.9335403"
   sodipodi:arg1="1.66750824"
   sodipodi:arg2="2.71470571"
   points="229.8934,670.1749 209.8612,626.1344 189.829,582.094 237.9852,586.7659 286.1415,591.4377 258.0174,630.8063 229.8934,670.1749 "
   transform="matrix(-0.487011,0.96723,-0.852404,-0.436217,1071.917,695.4832)" /><polygon
   sodipodi:type="star"
   style="font-size:12;fill:url(#radialGradient698);fill-rule:evenodd;stroke-width:0.9774;fill-opacity:1;stroke:#000000;stroke-opacity:1;stroke-dasharray:none;"
   id="polygon707"
   sodipodi:sides="3"
   sodipodi:cx="235.287949"
   sodipodi:cy="614.568848"
   sodipodi:r1="55.8670807"
   sodipodi:r2="27.9335403"
   sodipodi:arg1="1.66750824"
   sodipodi:arg2="2.71470571"
   points="229.8934,670.1749 209.8612,626.1344 189.829,582.094 237.9852,586.7659 286.1415,591.4377 258.0174,630.8063 229.8934,670.1749 "
   transform="matrix(-0.965755,0.48993,-0.427602,-0.856758,859.8998,1121.329)" /><polygon
   sodipodi:type="star"
   style="font-size:12;fill:url(#radialGradient698);fill-rule:evenodd;stroke-width:0.9774;fill-opacity:1;stroke:#000000;stroke-opacity:1;stroke-dasharray:none;"
   id="polygon708"
   sodipodi:sides="3"
   sodipodi:cx="235.287949"
   sodipodi:cy="614.568848"
   sodipodi:r1="55.8670807"
   sodipodi:r2="27.9335403"
   sodipodi:arg1="1.66750824"
   sodipodi:arg2="2.71470571"
   points="229.8934,670.1749 209.8612,626.1344 189.829,582.094 237.9852,586.7659 286.1415,591.4377 258.0174,630.8063 229.8934,670.1749 "
   transform="matrix(-1.080104,-7.803178e-2,7.525191e-2,-0.954576,490.176,1325.416)" /><polygon
   sodipodi:type="star"
   style="font-size:12;fill:url(#radialGradient698);fill-rule:evenodd;stroke-width:0.9774;fill-opacity:1;stroke:#000000;stroke-opacity:1;stroke-dasharray:none;"
   id="polygon709"
   sodipodi:sides="3"
   sodipodi:cx="235.287949"
   sodipodi:cy="614.568848"
   sodipodi:r1="55.8670807"
   sodipodi:r2="27.9335403"
   sodipodi:arg1="1.66750824"
   sodipodi:arg2="2.71470571"
   points="229.8934,670.1749 209.8612,626.1344 189.829,582.094 237.9852,586.7659 286.1415,591.4377 258.0174,630.8063 229.8934,670.1749 "
   transform="matrix(-0.872751,-0.641108,0.571923,-0.767973,57.33271,1307.457)" /><polygon
   sodipodi:type="star"
   style="font-size:12;fill:url(#radialGradient698);fill-rule:evenodd;stroke-width:0.9774;fill-opacity:1;stroke:#000000;stroke-opacity:1;stroke-dasharray:none;"
   id="polygon710"
   sodipodi:sides="3"
   sodipodi:cx="235.287949"
   sodipodi:cy="614.568848"
   sodipodi:r1="55.8670807"
   sodipodi:r2="27.9335403"
   sodipodi:arg1="1.66750824"
   sodipodi:arg2="2.71470571"
   points="229.8934,670.1749 209.8612,626.1344 189.829,582.094 237.9852,586.7659 286.1415,591.4377 258.0174,630.8063 229.8934,670.1749 "
   transform="matrix(-0.443455,-0.987958,0.876121,-0.386381,-280.2908,1081.364)" /><polygon
   sodipodi:type="star"
   style="font-size:12;fill:url(#radialGradient698);fill-rule:evenodd;stroke-width:0.9774;fill-opacity:1;stroke:#000000;stroke-opacity:1;stroke-dasharray:none;"
   id="polygon711"
   sodipodi:sides="3"
   sodipodi:cx="235.287949"
   sodipodi:cy="614.568848"
   sodipodi:r1="55.8670807"
   sodipodi:r2="27.9335403"
   sodipodi:arg1="1.66750824"
   sodipodi:arg2="2.71470571"
   points="229.8934,670.1749 209.8612,626.1344 189.829,582.094 237.9852,586.7659 286.1415,591.4377 258.0174,630.8063 229.8934,670.1749 "
   transform="matrix(8.746022e-2,-1.079382,0.953883,8.35845e-2,-460.5914,724.9681)" /><polygon
   sodipodi:type="star"
   style="font-size:12;fill:url(#radialGradient698);fill-rule:evenodd;stroke-width:0.9774;fill-opacity:1;stroke:#000000;stroke-opacity:1;stroke-dasharray:none;"
   id="polygon712"
   sodipodi:sides="3"
   sodipodi:cx="235.287949"
   sodipodi:cy="614.568848"
   sodipodi:r1="55.8670807"
   sodipodi:r2="27.9335403"
   sodipodi:arg1="1.66750824"
   sodipodi:arg2="2.71470571"
   points="229.8934,670.1749 209.8612,626.1344 189.829,582.094 237.9852,586.7659 286.1415,591.4377 258.0174,630.8063 229.8934,670.1749 "
   transform="matrix(0.603255,-0.899332,0.791695,0.538607,-447.2943,322.1184)" /><polygon
   sodipodi:type="star"
   style="font-size:12;fill:url(#radialGradient698);fill-rule:evenodd;stroke-width:0.9774;fill-opacity:1;stroke:#000000;stroke-opacity:1;stroke-dasharray:none;"
   id="polygon713"
   sodipodi:sides="3"
   sodipodi:cx="235.287949"
   sodipodi:cy="614.568848"
   sodipodi:r1="55.8670807"
   sodipodi:r2="27.9335403"
   sodipodi:arg1="1.66750824"
   sodipodi:arg2="2.71470571"
   points="229.8934,670.1749 209.8612,626.1344 189.829,582.094 237.9852,586.7659 286.1415,591.4377 258.0174,630.8063 229.8934,670.1749 "
   transform="matrix(0.962451,-0.532098,0.470677,0.84377,-262.8988,-7.57106)" /><polygon
   sodipodi:type="star"
   style="font-size:12;fill:url(#radialGradient698);fill-rule:evenodd;stroke-width:0.9774;fill-opacity:1;stroke:#000000;stroke-opacity:1;stroke-dasharray:none;"
   id="polygon714"
   sodipodi:sides="3"
   sodipodi:cx="235.287949"
   sodipodi:cy="614.568848"
   sodipodi:r1="55.8670807"
   sodipodi:r2="27.9335403"
   sodipodi:arg1="1.66750824"
   sodipodi:arg2="2.71470571"
   points="229.8934,670.1749 209.8612,626.1344 189.829,582.094 237.9852,586.7659 286.1415,591.4377 258.0174,630.8063 229.8934,670.1749 "
   transform="matrix(1.081297,-6.174201e-2,4.619858e-2,0.983996,59.25901,-221.9033)" /><polygon
   sodipodi:type="star"
   style="font-size:12;fill:url(#radialGradient698);fill-rule:evenodd;stroke-width:0.9774;fill-opacity:1;stroke:#000000;stroke-opacity:1;stroke-dasharray:none;"
   id="polygon715"
   sodipodi:sides="3"
   sodipodi:cx="235.287949"
   sodipodi:cy="614.568848"
   sodipodi:r1="55.8670807"
   sodipodi:r2="27.9335403"
   sodipodi:arg1="1.66750824"
   sodipodi:arg2="2.71470571"
   points="229.8934,670.1749 209.8612,626.1344 189.829,582.094 237.9852,586.7659 286.1415,591.4377 258.0174,630.8063 229.8934,670.1749 "
   transform="matrix(1.055583,0.46219,-0.446601,0.86325,456.551,-248.4476)" /><polygon
   sodipodi:type="star"
   style="font-size:12;fill:url(#radialGradient698);fill-rule:evenodd;stroke-width:0.9774;fill-opacity:1;stroke:#000000;stroke-opacity:1;stroke-dasharray:none;"
   id="polygon716"
   sodipodi:sides="3"
   sodipodi:cx="235.287949"
   sodipodi:cy="614.568848"
   sodipodi:r1="55.8670807"
   sodipodi:r2="27.9335403"
   sodipodi:arg1="1.66750824"
   sodipodi:arg2="2.71470571"
   points="229.8934,670.1749 209.8612,626.1344 189.829,582.094 237.9852,586.7659 286.1415,591.4377 258.0174,630.8063 229.8934,670.1749 "
   transform="matrix(0.729385,0.892116,-0.790667,0.565242,816.8983,-103.6169)" /><polygon
   sodipodi:type="star"
   style="font-size:12;fill:url(#radialGradient698);fill-rule:evenodd;stroke-width:0.9774;fill-opacity:1;stroke:#000000;stroke-opacity:1;stroke-dasharray:none;"
   id="polygon717"
   sodipodi:sides="3"
   sodipodi:cx="235.287949"
   sodipodi:cy="614.568848"
   sodipodi:r1="55.8670807"
   sodipodi:r2="27.9335403"
   sodipodi:arg1="1.66750824"
   sodipodi:arg2="2.71470571"
   points="229.8934,670.1749 209.8612,626.1344 189.829,582.094 237.9852,586.7659 286.1415,591.4377 258.0174,630.8063 229.8934,670.1749 "
   transform="matrix(0.286844,1.116062,-0.955016,0.180547,1059.345,169.1035)" /><polygon
   sodipodi:type="star"
   style="font-size:12;fill:url(#radialGradient698);fill-rule:evenodd;stroke-width:0.9774;fill-opacity:1;stroke:#000000;stroke-opacity:1;stroke-dasharray:none;"
   id="polygon718"
   sodipodi:sides="3"
   sodipodi:cx="235.287949"
   sodipodi:cy="614.568848"
   sodipodi:r1="55.8670807"
   sodipodi:r2="27.9335403"
   sodipodi:arg1="1.66750824"
   sodipodi:arg2="2.71470571"
   points="229.8934,670.1749 209.8612,626.1344 189.829,582.094 237.9852,586.7659 286.1415,591.4377 258.0174,630.8063 229.8934,670.1749 "
   transform="matrix(-0.202797,1.134349,-0.943696,-0.232572,1163.987,516.8733)" /></svg>
